<svg viewBox="0 0 853.7500610351562 399.9851379394531" xmlns="http://www.w3.org/2000/svg"><g><g><g><g><g><line x1="58" y1="377.985" x2="53" y2="377.985" style="visibility: inherit;" fill="rgb(0, 0, 0)" stroke="rgb(204, 204, 204)" stroke-width="1px"></line><line x1="58" y1="350.98607142857145" x2="53" y2="350.98607142857145" style="visibility: inherit;" fill="rgb(0, 0, 0)" stroke="rgb(204, 204, 204)" stroke-width="1px"></line><line x1="58" y1="323.9871428571429" x2="53" y2="323.9871428571429" style="visibility: inherit;" fill="rgb(0, 0, 0)" stroke="rgb(204, 204, 204)" stroke-width="1px"></line><line x1="58" y1="296.9882142857143" x2="53" y2="296.9882142857143" style="visibility: inherit;" fill="rgb(0, 0, 0)" stroke="rgb(204, 204, 204)" stroke-width="1px"></line><line x1="58" y1="269.98928571428576" x2="53" y2="269.98928571428576" style="visibility: inherit;" fill="rgb(0, 0, 0)" stroke="rgb(204, 204, 204)" stroke-width="1px"></line><line x1="58" y1="242.99035714285716" x2="53" y2="242.99035714285716" style="visibility: inherit;" fill="rgb(0, 0, 0)" stroke="rgb(204, 204, 204)" stroke-width="1px"></line><line x1="58" y1="215.99142857142863" x2="53" y2="215.99142857142863" style="visibility: inherit;" fill="rgb(0, 0, 0)" stroke="rgb(204, 204, 204)" stroke-width="1px"></line><line x1="58" y1="188.99250000000004" x2="53" y2="188.99250000000004" style="visibility: inherit;" fill="rgb(0, 0, 0)" stroke="rgb(204, 204, 204)" stroke-width="1px"></line><line x1="58" y1="161.99357142857144" x2="53" y2="161.99357142857144" style="visibility: inherit;" fill="rgb(0, 0, 0)" stroke="rgb(204, 204, 204)" stroke-width="1px"></line><line x1="58" y1="134.99464285714294" x2="53" y2="134.99464285714294" style="visibility: inherit;" fill="rgb(0, 0, 0)" stroke="rgb(204, 204, 204)" stroke-width="1px"></line><line x1="58" y1="107.99571428571431" x2="53" y2="107.99571428571431" style="visibility: inherit;" fill="rgb(0, 0, 0)" stroke="rgb(204, 204, 204)" stroke-width="1px"></line><line x1="58" y1="80.99678571428575" x2="53" y2="80.99678571428575" style="visibility: inherit;" fill="rgb(0, 0, 0)" stroke="rgb(204, 204, 204)" stroke-width="1px"></line><line x1="58" y1="53.997857142857185" x2="53" y2="53.997857142857185" style="visibility: inherit;" fill="rgb(0, 0, 0)" stroke="rgb(204, 204, 204)" stroke-width="1px"></line><line x1="58" y1="26.99892857142862" x2="53" y2="26.99892857142862" style="visibility: inherit;" fill="rgb(0, 0, 0)" stroke="rgb(204, 204, 204)" stroke-width="1px"></line><line x1="58" y1="0" x2="53" y2="0" style="visibility: inherit;" fill="rgb(0, 0, 0)" stroke="rgb(204, 204, 204)" stroke-width="1px"></line></g><g transform="translate(48, 0)"><text x="0" y="377.985" dx="0em" dy="0.3em" style="text-anchor: end; visibility: hidden; font-family: &quot;Helvetica Neue&quot;, sans-serif; font-size: 12px; font-weight: 200;" fill="rgb(50, 49, 63)" stroke="none" stroke-width="1px">0.4</text><text x="0" y="350.98607142857145" dx="0em" dy="0.3em" style="text-anchor: end; visibility: inherit; font-family: &quot;Helvetica Neue&quot;, sans-serif; font-size: 12px; font-weight: 200;" fill="rgb(50, 49, 63)" stroke="none" stroke-width="1px">0.45</text><text x="0" y="323.9871428571429" dx="0em" dy="0.3em" style="text-anchor: end; visibility: inherit; font-family: &quot;Helvetica Neue&quot;, sans-serif; font-size: 12px; font-weight: 200;" fill="rgb(50, 49, 63)" stroke="none" stroke-width="1px">0.5</text><text x="0" y="296.9882142857143" dx="0em" dy="0.3em" style="text-anchor: end; visibility: inherit; font-family: &quot;Helvetica Neue&quot;, sans-serif; font-size: 12px; font-weight: 200;" fill="rgb(50, 49, 63)" stroke="none" stroke-width="1px">0.55</text><text x="0" y="269.98928571428576" dx="0em" dy="0.3em" style="text-anchor: end; visibility: inherit; font-family: &quot;Helvetica Neue&quot;, sans-serif; font-size: 12px; font-weight: 200;" fill="rgb(50, 49, 63)" stroke="none" stroke-width="1px">0.6</text><text x="0" y="242.99035714285716" dx="0em" dy="0.3em" style="text-anchor: end; visibility: inherit; font-family: &quot;Helvetica Neue&quot;, sans-serif; font-size: 12px; font-weight: 200;" fill="rgb(50, 49, 63)" stroke="none" stroke-width="1px">0.65</text><text x="0" y="215.99142857142863" dx="0em" dy="0.3em" style="text-anchor: end; visibility: inherit; font-family: &quot;Helvetica Neue&quot;, sans-serif; font-size: 12px; font-weight: 200;" fill="rgb(50, 49, 63)" stroke="none" stroke-width="1px">0.7</text><text x="0" y="188.99250000000004" dx="0em" dy="0.3em" style="text-anchor: end; visibility: inherit; font-family: &quot;Helvetica Neue&quot;, sans-serif; font-size: 12px; font-weight: 200;" fill="rgb(50, 49, 63)" stroke="none" stroke-width="1px">0.75</text><text x="0" y="161.99357142857144" dx="0em" dy="0.3em" style="text-anchor: end; visibility: inherit; font-family: &quot;Helvetica Neue&quot;, sans-serif; font-size: 12px; font-weight: 200;" fill="rgb(50, 49, 63)" stroke="none" stroke-width="1px">0.8</text><text x="0" y="134.99464285714294" dx="0em" dy="0.3em" style="text-anchor: end; visibility: inherit; font-family: &quot;Helvetica Neue&quot;, sans-serif; font-size: 12px; font-weight: 200;" fill="rgb(50, 49, 63)" stroke="none" stroke-width="1px">0.85</text><text x="0" y="107.99571428571431" dx="0em" dy="0.3em" style="text-anchor: end; visibility: inherit; font-family: &quot;Helvetica Neue&quot;, sans-serif; font-size: 12px; font-weight: 200;" fill="rgb(50, 49, 63)" stroke="none" stroke-width="1px">0.9</text><text x="0" y="80.99678571428575" dx="0em" dy="0.3em" style="text-anchor: end; visibility: inherit; font-family: &quot;Helvetica Neue&quot;, sans-serif; font-size: 12px; font-weight: 200;" fill="rgb(50, 49, 63)" stroke="none" stroke-width="1px">0.95</text><text x="0" y="53.997857142857185" dx="0em" dy="0.3em" style="text-anchor: end; visibility: inherit; font-family: &quot;Helvetica Neue&quot;, sans-serif; font-size: 12px; font-weight: 200;" fill="rgb(50, 49, 63)" stroke="none" stroke-width="1px">1</text><text x="0" y="26.99892857142862" dx="0em" dy="0.3em" style="text-anchor: end; visibility: inherit; font-family: &quot;Helvetica Neue&quot;, sans-serif; font-size: 12px; font-weight: 200;" fill="rgb(50, 49, 63)" stroke="none" stroke-width="1px">1.05</text><text x="0" y="0" dx="0em" dy="0.3em" style="text-anchor: end; visibility: hidden; font-family: &quot;Helvetica Neue&quot;, sans-serif; font-size: 12px; font-weight: 200;" fill="rgb(50, 49, 63)" stroke="none" stroke-width="1px">1.1</text></g><line x1="58" y1="0" x2="58" y2="377.985" fill="rgb(0, 0, 0)" stroke="rgb(204, 204, 204)" stroke-width="1px"></line></g></g><g transform="translate(58, 0)" clip-path="url(#clip_0)"><clipPath id="clip_0"><rect width="795" height="377"></rect></clipPath><g><g><g><line x1="0" y1="0" x2="0" y2="377.985" fill="rgb(0, 0, 0)" stroke="rgb(60, 60, 60)" stroke-width="1px" opacity="0.25"></line><line x1="56.83928571428571" y1="0" x2="56.83928571428571" y2="377.985" fill="rgb(0, 0, 0)" stroke="rgb(60, 60, 60)" stroke-width="1px" opacity="0.25"></line><line x1="113.67857142857142" y1="0" x2="113.67857142857142" y2="377.985" fill="rgb(0, 0, 0)" stroke="rgb(60, 60, 60)" stroke-width="1px" opacity="0.25"></line><line x1="170.51785714285714" y1="0" x2="170.51785714285714" y2="377.985" fill="rgb(0, 0, 0)" stroke="rgb(60, 60, 60)" stroke-width="1px" opacity="0.25"></line><line x1="227.35714285714283" y1="0" x2="227.35714285714283" y2="377.985" fill="rgb(0, 0, 0)" stroke="rgb(60, 60, 60)" stroke-width="1px" opacity="0.25"></line><line x1="284.19642857142856" y1="0" x2="284.19642857142856" y2="377.985" fill="rgb(0, 0, 0)" stroke="rgb(60, 60, 60)" stroke-width="1px" opacity="0.25"></line><line x1="341.0357142857143" y1="0" x2="341.0357142857143" y2="377.985" fill="rgb(0, 0, 0)" stroke="rgb(60, 60, 60)" stroke-width="1px" opacity="0.25"></line><line x1="397.875" y1="0" x2="397.875" y2="377.985" fill="rgb(0, 0, 0)" stroke="rgb(60, 60, 60)" stroke-width="1px" opacity="0.25"></line><line x1="454.71428571428567" y1="0" x2="454.71428571428567" y2="377.985" fill="rgb(0, 0, 0)" stroke="rgb(60, 60, 60)" stroke-width="1px" opacity="0.25"></line><line x1="511.55357142857144" y1="0" x2="511.55357142857144" y2="377.985" fill="rgb(0, 0, 0)" stroke="rgb(60, 60, 60)" stroke-width="1px" opacity="0.25"></line><line x1="568.3928571428571" y1="0" x2="568.3928571428571" y2="377.985" fill="rgb(0, 0, 0)" stroke="rgb(60, 60, 60)" stroke-width="1px" opacity="0.25"></line><line x1="625.2321428571429" y1="0" x2="625.2321428571429" y2="377.985" fill="rgb(0, 0, 0)" stroke="rgb(60, 60, 60)" stroke-width="1px" opacity="0.25"></line><line x1="682.0714285714286" y1="0" x2="682.0714285714286" y2="377.985" fill="rgb(0, 0, 0)" stroke="rgb(60, 60, 60)" stroke-width="1px" opacity="0.25"></line><line x1="738.9107142857143" y1="0" x2="738.9107142857143" y2="377.985" fill="rgb(0, 0, 0)" stroke="rgb(60, 60, 60)" stroke-width="1px" opacity="0.25"></line><line x1="795.75" y1="0" x2="795.75" y2="377.985" fill="rgb(0, 0, 0)" stroke="rgb(60, 60, 60)" stroke-width="1px" opacity="0.25"></line></g><g><line x1="0" y1="377.985" x2="795.75" y2="377.985" fill="rgb(0, 0, 0)" stroke="rgb(60, 60, 60)" stroke-width="1px" opacity="0.25"></line><line x1="0" y1="350.98607142857145" x2="795.75" y2="350.98607142857145" fill="rgb(0, 0, 0)" stroke="rgb(60, 60, 60)" stroke-width="1px" opacity="0.25"></line><line x1="0" y1="323.9871428571429" x2="795.75" y2="323.9871428571429" fill="rgb(0, 0, 0)" stroke="rgb(60, 60, 60)" stroke-width="1px" opacity="0.25"></line><line x1="0" y1="296.9882142857143" x2="795.75" y2="296.9882142857143" fill="rgb(0, 0, 0)" stroke="rgb(60, 60, 60)" stroke-width="1px" opacity="0.25"></line><line x1="0" y1="269.98928571428576" x2="795.75" y2="269.98928571428576" fill="rgb(0, 0, 0)" stroke="rgb(60, 60, 60)" stroke-width="1px" opacity="0.25"></line><line x1="0" y1="242.99035714285716" x2="795.75" y2="242.99035714285716" fill="rgb(0, 0, 0)" stroke="rgb(60, 60, 60)" stroke-width="1px" opacity="0.25"></line><line x1="0" y1="215.99142857142863" x2="795.75" y2="215.99142857142863" fill="rgb(0, 0, 0)" stroke="rgb(60, 60, 60)" stroke-width="1px" opacity="0.25"></line><line x1="0" y1="188.99250000000004" x2="795.75" y2="188.99250000000004" fill="rgb(0, 0, 0)" stroke="rgb(60, 60, 60)" stroke-width="1px" opacity="0.25"></line><line x1="0" y1="161.99357142857144" x2="795.75" y2="161.99357142857144" fill="rgb(0, 0, 0)" stroke="rgb(60, 60, 60)" stroke-width="1px" opacity="0.25"></line><line x1="0" y1="134.99464285714294" x2="795.75" y2="134.99464285714294" fill="rgb(0, 0, 0)" stroke="rgb(60, 60, 60)" stroke-width="1px" opacity="0.25"></line><line x1="0" y1="107.99571428571431" x2="795.75" y2="107.99571428571431" fill="rgb(0, 0, 0)" stroke="rgb(60, 60, 60)" stroke-width="1px" opacity="0.25"></line><line x1="0" y1="80.99678571428575" x2="795.75" y2="80.99678571428575" fill="rgb(0, 0, 0)" stroke="rgb(60, 60, 60)" stroke-width="1px" opacity="0.25"></line><line x1="0" y1="53.997857142857185" x2="795.75" y2="53.997857142857185" fill="rgb(0, 0, 0)" stroke="rgb(60, 60, 60)" stroke-width="1px" opacity="0.25"></line><line x1="0" y1="26.99892857142862" x2="795.75" y2="26.99892857142862" fill="rgb(0, 0, 0)" stroke="rgb(60, 60, 60)" stroke-width="1px" opacity="0.25"></line><line x1="0" y1="0" x2="795.75" y2="0" fill="rgb(0, 0, 0)" stroke="rgb(60, 60, 60)" stroke-width="1px" opacity="0.25"></line></g></g></g><g><g><line x1="0" y1="593.9764285714286" x2="795.75" y2="593.9764285714286" fill="rgb(0, 0, 0)" stroke="rgb(153, 153, 153)" stroke-width="1.5px"></line></g></g><g><g><line x1="56.83928571428571" y1="0" x2="56.83928571428571" y2="377.985" fill="rgb(0, 0, 0)" stroke="rgb(153, 153, 153)" stroke-width="1.5px"></line></g></g><g><g><g><g><g><path stroke="rgb(255, 112, 67)" stroke-width="2px" d="M57.97607142857143,334.53359933035716L59.112857142857145,336.7160010837383L60.24964285714286,338.1946842997407L61.38642857142857,332.51510093781457L62.52321428571428,327.18904720464343L63.660000000000004,327.18157387687745L64.79678571428572,325.52263634962696L65.93357142857143,325.44697688159033L67.07035714285715,323.71436959798507L68.20714285714286,322.62072772504877L69.34392857142858,321.9978317459007L70.48071428571428,322.85919138574843L71.61749999999999,323.7000827478489L72.75428571428571,321.4562625503082L73.89107142857144,324.3411076663371L75.02785714285714,324.41114338725606L76.16464285714285,325.79885448868447L77.30142857142857,328.5025989769535L78.43821428571428,328.57193548999L79.575,327.5973002877862L80.71178571428571,326.91335793152075L81.84857142857143,327.74639610122995L82.98535714285714,327.4304139894511L84.12214285714286,324.9668144908027L85.25892857142857,326.431831098026L86.39571428571428,325.8973098405226L87.5325,326.08007279531114L88.66928571428572,326.74131044040024L89.80607142857143,325.05984002255894L90.94285714285714,324.00879257658994L92.07964285714286,323.527277317687L93.21642857142858,323.9582382234821L94.35321428571429,325.37584104233656L95.49,324.57066214960946L96.62678571428572,326.1553472383922L97.76357142857142,326.07404216527016L98.90035714285715,326.15221061308364L100.03714285714287,326.52877878193954L101.17392857142858,326.4977350681601L102.31071428571427,326.2429634088921L103.4475,327.35799309295146L104.58428571428571,326.446684629123L105.72107142857143,325.2310171774286L106.85785714285714,323.7343316815885L107.99464285714285,322.86497553963693L109.13142857142857,322.795998618455L110.26821428571428,322.80550932435926L111.40500000000002,321.6417323265791L112.54178571428572,321.5849940149917L113.67857142857142,320.8029457917082L114.81535714285715,320.44044647722825L115.95214285714286,318.72360067601164L117.08892857142857,314.44555154182905L118.22571428571429,309.02106912184024L119.3625,304.0492626305223L120.49928571428572,299.8579408707044L121.63607142857143,295.16633774611586L122.77285714285713,292.09604971047827L123.90964285714286,289.23871433506594L125.04642857142856,286.6508830505168L126.18321428571427,283.16617389313524L127.32000000000001,279.92159586624814L128.4567857142857,276.54234336046693L129.59357142857144,273.82414560601546L130.73035714285714,271.00647728247304L131.86714285714285,267.8104928271573L133.0039285714286,264.76159167474594L134.1407142857143,261.56429219424285L135.2775,258.7274630707918L136.4142857142857,258.00663345425653L137.55107142857142,255.05711060660568L138.68785714285715,251.95228281651066L139.82464285714286,249.4137804662322L140.96142857142857,247.6160991031212L142.09821428571428,246.01129760975857L143.23499999999999,243.52079968730834L144.37178571428572,241.90884905414424L145.50857142857143,241.04471470544607L146.64535714285714,237.82642519990702L147.78214285714287,235.3220710542786L148.91892857142858,234.26331852969372L150.0557142857143,232.21247743168178L151.1925,231.00880123968298L152.3292857142857,228.96495026018923L153.46607142857144,226.13768772917763L154.60285714285715,223.43001945927747L155.73964285714285,221.96713393697738L156.87642857142856,220.5318972821063L158.01321428571427,220.11375531564474L159.15,219.0865501996498L160.2867857142857,218.19921715132443L161.42357142857142,216.2390450578314L162.56035714285716,214.4106354172732L163.69714285714286,213.3419951257934L164.83392857142857,213.40653799241045L165.97071428571428,212.2639589381452L167.1075,210.20767860160066L168.24428571428572,208.2187481525487L169.38107142857143,204.7364585019286L170.51785714285714,203.46839553550421L171.65464285714287,202.0732763323386L172.79142857142855,201.05467896144438L173.9282142857143,200.59945948857992L175.065,200.3869265524188L176.2017857142857,198.98658524840423L177.33857142857144,197.46807173197632L178.47535714285715,195.76861052788684L179.61214285714286,194.183145109811L180.74892857142856,192.20913386575447L181.88571428571427,190.22612342953497L183.0225,188.8709530356444L184.15928571428572,187.60665873770563L185.29607142857142,187.3461008832849L186.43285714285716,185.40651828013188L187.56964285714287,183.73835145377666L188.70642857142857,181.68723856973926L189.84321428571428,180.33909482614013L190.98,179.29337198474116L192.11678571428573,178.3884300816818L193.25357142857143,178.39229112114901L194.39035714285714,178.11318419216835L195.52714285714285,177.00467104804042L196.66392857142856,175.61708260843355L197.8007142857143,174.60519519332422L198.9375,175.14526988893854L200.07428571428574,173.2462794557178L201.21107142857142,172.393294638732L202.34785714285715,171.7388185811827L203.48464285714286,171.41088610175004L204.62142857142854,170.8929210938704L205.75821428571427,170.8336835141906L206.895,169.08236612416505L208.03178571428575,167.30707452787664L209.16857142857143,165.93342122098605L210.30535714285713,164.72248639654336L211.44214285714287,165.2887038147454L212.57892857142855,164.54498101737326L213.71571428571428,164.9110876816907L214.85250000000002,164.75800088254937L215.9892857142857,163.06053008623L217.12607142857144,162.9607737001637L218.26285714285714,163.43302167841972L219.39964285714285,164.50960850424954L220.53642857142856,164.9487410515148L221.6732142857143,162.6732059845395L222.81000000000003,162.17541847393542L223.9467857142857,161.92297700799259L225.08357142857145,160.20351216786617L226.22035714285715,158.88191346796404L227.35714285714283,158.56749169475103L228.49392857142857,158.06214763736773L229.6307142857143,157.02535848053176L230.76749999999998,156.9059937516332L231.90428571428572,156.3706495379921L233.04107142857143,156.29515163081086L234.17785714285714,155.7300735803482L235.31464285714284,154.00159339064206L236.45142857142858,153.73151286623047L237.58821428571432,152.4902546416105L238.725,152.25077362896755L239.86178571428573,152.02733831476635L240.99857142857144,151.88953576791624L242.13535714285712,151.83162835654747L243.27214285714285,150.22303527695837L244.4089285714286,149.14619242702886L245.54571428571427,148.14149954405488L246.6825,147.55743197740827L247.8192857142857,147.4364688879037L248.95607142857142,146.61699213459354L250.09285714285713,145.85242118642458L251.22964285714286,145.63370955112228L252.36642857142854,146.20693076909006L253.50321428571428,146.3884372074153L254.64000000000001,146.41645924072662L255.77678571428572,144.88804775802114L256.9135714285714,143.6033641296351L258.05035714285714,143.04070943006334L259.1871428571429,143.0103838978947L260.32392857142855,142.69944401169607L261.4607142857143,142.26801420905338L262.5975,141.65350589018047L263.7342857142857,141.8574463168944L264.87107142857144,140.70515460571636L266.0078571428572,140.12469712790457L267.14464285714286,139.15916183065113L268.2814285714286,139.53022356418697L269.41821428571427,138.53385700051402L270.555,138.94681412869832L271.6917857142857,138.4135047887425L272.8285714285714,136.92666782340228L273.96535714285716,137.16466111487622L275.10214285714284,135.62017442869077L276.2389285714286,135.1684278197402L277.3757142857143,134.18165744510742L278.5125,133.26100086904393L279.6492857142857,133.03798056336186L280.78607142857146,131.84064388363188L281.92285714285714,131.28881962415824L283.0596428571429,131.4099196386124L284.19642857142856,131.5229059361798L285.3332142857143,131.27501553395157L286.46999999999997,131.60902434997783L287.6067857142857,130.154121721797L288.74357142857144,130.20992389609827L289.8803571428571,130.0500034025052L291.01714285714286,129.83013629334147L292.1539285714286,128.35309690637598L293.2907142857143,127.89361612810185L294.4275,127.88888835962959L295.56428571428575,127.17786443380365L296.7010714285714,126.44381786501856L297.83785714285716,126.53622662064458L298.97464285714284,125.56252470171549L300.1114285714286,125.57265754810254L301.24821428571425,126.00607918540274L302.385,124.78525210430544L303.5217857142857,125.0594460660648L304.6585714285714,124.04336602571016L305.79535714285714,123.09536338382227L306.9321428571429,122.42286077533299L308.06892857142856,121.79541586221694L309.2057142857143,121.98728377835752L310.34250000000003,121.31836127563503L311.4792857142857,120.83557913931497L312.61607142857144,119.96117579620437L313.7528571428571,120.48792161456402L314.88964285714286,120.34342403452484L316.02642857142854,119.36067257944643L317.1632142857143,119.0090556277533L318.3,119.10496461794969L319.4367857142857,117.85188364718039L320.5735714285714,117.24804924450603L321.71035714285716,117.10863934579862L322.84714285714284,116.05997347091585L323.9839285714286,115.1522294860967L325.1207142857143,114.30530435808816L326.2575,114.57504217489912L327.39428571428573,113.90811113425741L328.5310714285714,113.49784826774277L329.66785714285714,113.32705680429041L330.8046428571428,112.95572458339598L331.94142857142856,112.53861036194758L333.0782142857143,112.43208784316437L334.215,111.8380735030567L335.3517857142857,111.2131968658586L336.48857142857145,111.54878336136159L337.6253571428571,110.8019666458622L338.76214285714286,111.16510556534547L339.8989285714286,111.36259165441203L341.0357142857143,111.12287861195392L342.1725,111.04054886489382L343.30928571428575,110.82241269080538L344.44607142857143,109.700295260252L345.5828571428571,108.93600474084121L346.71964285714284,108.64688924752397L347.8564285714286,109.29574086975691L348.99321428571426,109.40649061407692L350.13,109.2271750869906L351.26678571428573,108.70656740316917L352.4035714285714,107.65555035991997L353.54035714285715,106.53362894189047L354.6771428571429,106.0521663351002L355.81392857142856,106.59221935281653L356.9507142857143,106.0361699300907L358.08750000000003,106.01200463325006L359.2242857142857,106.62540974285884L360.3610714285714,106.6324266372493L361.49785714285713,105.93236081001146L362.63464285714286,105.84448946540283L363.77142857142854,105.26787668872902L364.9082142857143,104.09394563892982L366.045,103.84660307640758L367.1817857142857,104.67575134769089L368.31857142857143,104.10678276760677L369.45535714285717,104.07056389397474L370.59214285714285,104.24875546104408L371.7289285714286,103.0724442778698L372.8657142857143,102.75221979002959L374.0025,102.1001440498008L375.13928571428573,101.5624186431325L376.2760714285714,101.1313820975816L377.41285714285715,101.1531925523592L378.5496428571428,101.10288044807538L379.68642857142856,100.56131044482191L380.8232142857143,100.4799931833112L381.96,99.76817285146711L383.0967857142857,99.8813183259212L384.23357142857145,99.77489927799309L385.37035714285713,99.39296527226452L386.50714285714287,98.82463706951529L387.6439285714286,98.78901566593044L388.7807142857143,98.82644215487755L389.9175,98.93202232753384L391.0542857142857,98.95986737013243L392.19107142857143,98.42055672717078L393.3278571428571,98.12936367274796L394.46464285714285,97.99900306991884L395.6014285714286,98.08936040283442L396.73821428571426,98.59763134507409L397.875,98.43589680819798L399.01178571428574,98.14367596844926L400.1485714285715,97.9416951834234L401.2853571428572,97.39994081889836L402.42214285714283,96.54117770474943L403.55892857142857,96.23458052824219L404.6957142857143,96.44315417148118L405.8325,96.84973715583857L406.9692857142857,96.87577278817463L408.10607142857145,97.32403158357482L409.2428571428571,97.24762823083302L410.3796428571428,96.39907006031945L411.51642857142855,96.24331661286743L412.6532142857143,95.74469235441785L413.79,95.98608850526062L414.92678571428576,95.71668230523107L416.0635714285715,94.61739121991087L417.2003571428571,94.51034899642781L418.33714285714285,94.4811398603112L419.4739285714286,94.24190396115154L420.61071428571427,94.9372932262716L421.7475,94.38485001805077L422.88428571428574,94.64669434702773L424.02107142857136,94.32570503888661L425.1578571428571,94.87415711499295L426.29464285714283,94.60858905978529L427.43142857142857,93.44221770532579L428.5682142857143,93.2019283322046L429.70500000000004,92.48310953842787L430.8417857142858,92.87237047953505L431.9785714285714,92.45827709541669L433.11535714285714,91.93060545128401L434.25214285714287,92.49820668297986L435.3889285714286,92.67447234025894L436.5257142857143,91.70834806447112L437.6625,92.00819550756876L438.7992857142857,91.58134058821673L439.9360714285714,91.60705249871876L441.0728571428571,91.56038045284174L442.20964285714285,91.02220662541458L443.3464285714286,91.22670302817528L444.4832142857143,91.55882068869823L445.62000000000006,91.09141262384901L446.7567857142857,90.37267586585244L447.8935714285714,90.47936831275564L449.03035714285716,89.87229978198178L450.1671428571429,89.44722735951922L451.30392857142857,89.05063478936387L452.4407142857143,88.25664637117342L453.5775,88.78775782771407L454.71428571428567,89.42460733340943L455.8510714285714,89.02953030500686L456.98785714285714,88.87290721262553L458.1246428571429,88.72677786743424L459.2614285714286,88.30779415488291L460.39821428571435,88.19952738456152L461.53499999999997,88.59314329645525L462.6717857142857,87.61782303318705L463.80857142857144,88.19173565336581L464.9453571428572,88.02058354427521L466.08214285714286,88.49684995183793L467.2189285714286,88.65856147660713L468.35571428571427,88.4561320373594L469.49249999999995,88.26726537054162L470.6292857142857,88.02039151202962L471.7660714285714,87.50741316855328L472.90285714285716,86.8168205989769L474.0396428571429,86.80844905690333L475.17642857142863,86.23534834117982L476.31321428571425,86.05395166526586L477.45,85.74338604989617L478.5867857142857,85.31230581401456L479.72357142857146,85.2634142457922L480.86035714285714,85.42978218775374L481.9971428571429,85.4436809608618L483.13392857142856,84.89135844920435L484.27071428571423,84.02273525397413L485.40749999999997,84.48421246350011L486.5442857142857,83.85485182442517L487.68107142857144,83.33831960653941L488.8178571428572,83.20970133910606L489.9546428571429,83.58432930418638L491.09142857142854,83.36856712864011L492.2282142857143,83.02593850211395L493.365,82.91824976867741L494.50178571428575,82.67645366363968L495.6385714285714,82.66284167275171L496.77535714285716,82.86212546036529L497.91214285714284,82.83607345909661L499.0489285714286,82.6704444251717L500.18571428571425,81.80929995281303L501.3225,81.71246474380928L502.4592857142857,81.97542378566197L503.59607142857146,81.44349072963342L504.7328571428571,81.86579354717713L505.8696428571428,81.76517326735097L507.00642857142856,82.16592335486752L508.1432142857143,82.25717815303784L509.28000000000003,82.41298013810143L510.41678571428577,82.27569835668328L511.55357142857144,82.00629193787904L512.6903571428571,82.39088707447007L513.8271428571428,82.18442426994471L514.9639285714286,82.4864232819167L516.1007142857143,82.20289829312185L517.2375000000001,81.93836947857625L518.3742857142857,81.69156409460521L519.5110714285714,81.88526222158373L520.6478571428571,81.4300312487195L521.7846428571428,80.93463949266669L522.9214285714286,81.0377290512339L524.0582142857143,81.55787915960053L525.195,80.98326033514826L526.3317857142857,80.30581845519305L527.4685714285714,80.30971650652992L528.6053571428571,80.45467590516836L529.7421428571429,80.51926176572749L530.8789285714286,81.21547169896411L532.0157142857144,80.80511669111553L533.1525,80.70490050227505L534.2892857142857,80.47007628134583L535.4260714285714,80.18032402484823L536.5628571428572,80.40461397812987L537.6996428571429,80.96718279639435L538.8364285714285,80.64412440338856L539.9732142857143,80.34271092271416L541.11,79.84950837013332L542.2467857142857,79.74265668042813L543.3835714285714,79.43098027882155L544.5203571428572,79.35216997123428L545.6571428571428,79.06665617914365L546.7939285714286,78.94159432786421L547.9307142857143,79.10755665410272L549.0675,79.2623995044832L550.2042857142857,79.12422285040611L551.3410714285715,78.99530403215203L552.4778571428571,78.73370025797993L553.6146428571428,78.13631764482471L554.7514285714286,78.63887854230899L555.8882142857143,78.82512282617972L557.025,78.99888874303105L558.1617857142857,78.80770605160069L559.2985714285714,78.55867134212554L560.4353571428571,78.25566069981471L561.5721428571429,78.25559680402085L562.7089285714286,78.5381822227273L563.8457142857143,78.16588309304564L564.9825,78.24249555527587L566.1192857142858,78.17265246579564L567.2560714285714,78.17815012168103L568.3928571428571,78.32460195136326L569.5296428571429,78.4612415084568L570.6664285714286,77.74079111477852L571.8032142857143,77.20993341421774L572.9399999999999,77.49191702167053L574.0767857142857,77.68434646905348L575.2135714285714,77.29859307649747L576.3503571428572,77.22133019472483L577.4871428571429,76.93726015091931L578.6239285714286,76.24825524982566L579.7607142857142,76.02938122732837L580.8975,75.54252673085637L582.0342857142857,75.72424281098262L583.1710714285714,75.54047762188793L584.3078571428572,75.5810084755741L585.4446428571429,75.19485621184009L586.5814285714285,75.18788244162891L587.7182142857142,74.1214570384638L588.855,74.25706227123948L589.9917857142857,73.95961440319587L591.1285714285715,74.03540183416385L592.2653571428572,74.31809528236863L593.4021428571428,74.22854197769101L594.5389285714285,74.2863112611679L595.6757142857143,74.3402100026517L596.8125,74.10785249497411L597.9492857142857,74.03238545705193L599.0860714285715,74.4566035192642L600.2228571428572,74.42843142108512L601.3596428571428,74.40214685348406L602.4964285714285,73.95365580168902L603.6332142857143,74.17116497569907L604.77,74.23277851830932L605.9067857142858,74.36092521193518L607.0435714285715,74.26850230197664L608.1803571428571,73.97028795187367L609.3171428571428,73.55073144648651L610.4539285714286,73.7245752939246L611.5907142857143,73.60412657010215L612.7275,73.42108665240534L613.8642857142858,73.39163292593531L615.0010714285714,73.15216882402711L616.1378571428571,73.07007133368779L617.2746428571428,72.71082934171915L618.4114285714286,72.79962411343553L619.5482142857143,72.45850208522376L620.6850000000001,72.06957397453158L621.8217857142857,72.27199411422004L622.9585714285714,72.39019084617888L624.0953571428571,72.14716210524381L625.2321428571429,72.06173880669252L626.3689285714286,72.12336138588529L627.5057142857142,71.61556518530767L628.6425,71.42443636365101L629.7792857142857,71.10479065630426L630.9160714285714,71.08920624483181L632.0528571428571,70.93334347218706L633.1896428571429,71.21189105553259L634.3264285714286,70.90648588382982L635.4632142857143,70.76286537537214L636.6,70.91151247446328L637.7367857142857,71.2621839930269L638.8735714285714,71.16539296962361L640.0103571428572,70.79244191130618L641.1471428571429,71.00976864086033L642.2839285714285,71.49517951301641L643.4207142857143,72.08939037347915L644.5575,71.65453148910342L645.6942857142857,71.31946940835144L646.8310714285714,71.28950152049185L647.9678571428572,71.75617028971266L649.1046428571428,71.97958847628405L650.2414285714286,71.76407009413197L651.3782142857143,71.49233018521346L652.515,71.16813559182208L653.6517857142857,70.65367826107627L654.7885714285715,71.0922859303073L655.9253571428571,71.21886185221786L657.0621428571428,71.76092473758354L658.1989285714286,71.70137934266546L659.3357142857143,71.15119468061312L660.4725,70.70853364928888L661.6092857142856,71.00214349076862L662.7460714285714,70.92277518101656L663.8828571428571,71.13136958150011L665.0196428571429,70.61937557344584L666.1564285714286,70.9896202643776L667.2932142857143,70.7697684940527L668.43,70.35266301722794L669.5667857142857,70.17548738246205L670.7035714285714,70.01018251522555L671.8403571428572,70.49190439942862L672.9771428571429,70.02275455857318L674.1139285714286,69.65569901542563L675.2507142857143,69.17191367692783L676.3874999999999,68.86186447285053L677.5242857142857,68.99655611566948L678.6610714285714,69.26354593516072L679.7978571428572,68.9473573697818L680.9346428571429,69.07632098850644L682.0714285714286,68.84333775292384L683.2082142857142,68.76728691086635L684.345,68.76699273359719L685.4817857142857,68.55473449109354L686.6185714285715,68.49802006757864L687.7553571428572,68.65708928555085L688.8921428571429,68.87616212428952L690.0289285714285,68.7272507909799L691.1657142857142,68.94162280885479L692.3025,68.78832560967942L693.4392857142857,68.92794435633095L694.5760714285715,68.84622487184515L695.7128571428572,69.05262562630207L696.8496428571428,68.75056872161662L697.9864285714285,68.39808837117454L699.1232142857143,68.21054672095323L700.26,68.10623161966726L701.3967857142858,68.15022814690849L702.5335714285715,68.12061564845402L703.6703571428571,68.16364844576657L704.8071428571428,68.13313678728855L705.9439285714285,67.8220243764465L707.0807142857143,67.67307901387187L708.2175,67.39279047384872L709.3542857142858,67.20194252437767L710.4910714285714,67.16520390426234L711.6278571428571,66.91894299658304L712.7646428571428,66.75984282808878L713.9014285714286,66.5407411125131L715.0382142857143,66.68962550373362L716.1750000000001,66.4752283488898L717.3117857142857,66.41651832016146L718.4485714285714,65.86711305476422L719.5853571428571,65.77848549237183L720.7221428571428,65.41315094317753L721.8589285714286,65.70824513411407L722.9957142857143,65.7715842391463L724.1325,66.2546471743646L725.2692857142857,65.8574097924768L726.4060714285714,65.84009360702822L727.5428571428571,65.6826150892636L728.6796428571429,65.46502637381866L729.8164285714286,66.18061246112546L730.9532142857144,66.42428673035948L732.09,66.1570060149611L733.2267857142857,66.26093939934708L734.3635714285714,66.07526421349712L735.5003571428572,66.1140130402107L736.6371428571429,66.71545576249866L737.7739285714285,66.64065049705857L738.9107142857143,66.570857184403" style="fill: none;" fill="none"></path></g></g></g></g><g opacity="0.2"><g><g><g><path stroke="rgb(255, 112, 67)" stroke-width="2px" d="M57.97607142857143,334.53359933035716L59.112857142857145,338.7521819196429L60.24964285714286,340.86147321428575L61.38642857142857,317.6592689732143L62.52321428571428,309.22210379464286L63.660000000000004,327.15107979910715L64.79678571428572,317.6592689732143L65.93357142857143,325.0417885044643L67.07035714285715,313.4406863839286L68.20714285714286,315.54997767857145L69.34392857142858,317.6592689732143L70.48071428571428,329.26037109375005L71.61749999999999,330.3150167410715L72.75428571428571,302.89422991071433L73.89107142857144,349.2986383928572L75.02785714285714,325.0417885044643L76.16464285714285,338.7521819196429L77.30142857142857,354.5718666294643L78.43821428571428,329.26037109375005L79.575,317.6592689732143L80.71178571428571,319.7685602678572L81.84857142857143,336.642890625L82.98535714285714,323.9871428571429L84.12214285714286,297.62100167410716L85.25892857142857,342.9707645089286L86.39571428571428,319.7685602678572L87.5325,328.2057254464286L88.66928571428572,334.53359933035716L89.80607142857143,305.0035212053572L90.94285714285714,311.3313950892857L92.07964285714286,317.6592689732143L93.21642857142858,329.26037109375005L94.35321428571429,342.9707645089286L95.49,314.49533203125003L96.62678571428572,346.13470145089286L97.76357142857142,325.0417885044643L98.90035714285715,327.15107979910715L100.03714285714287,331.3696623883929L101.17392857142858,326.09643415178573L102.31071428571427,322.93249720982146L103.4475,341.9161188616072L104.58428571428571,314.49533203125003L105.72107142857143,309.22210379464286L106.85785714285714,303.94887555803575L107.99464285714285,311.3313950892857L109.13142857142857,321.87785156250004L110.26821428571428,322.93249720982146L111.40500000000002,306.0581668526786L112.54178571428572,320.8232059151786L113.67857142857142,310.2767494419643L114.81535714285715,315.54997767857145L115.95214285714286,295.5117103794643L117.08892857142857,256.4898214285715L118.22571428571429,235.3969084821429L119.3625,236.4515541294643L120.49928571428572,242.7794280133929L121.63607142857143,231.17832589285717L122.77285714285713,250.16194754464289L123.90964285714286,250.16194754464289L125.04642857142856,251.2165931919643L126.18321428571427,235.3969084821429L127.32000000000001,235.3969084821429L128.4567857142857,230.12368024553575L129.59357142857144,236.4515541294643L130.73035714285714,232.2329715401786L131.86714285714285,223.79580636160716L133.0039285714286,222.74116071428574L134.1407142857143,217.4679324776786L135.2775,219.57722377232147L136.4142857142857,248.05265625000004L137.55107142857142,214.30399553571434L138.68785714285715,209.03076729910717L139.82464285714286,214.30399553571434L140.96142857142857,222.74116071428574L142.09821428571428,223.79580636160716L143.23499999999999,209.03076729910717L144.37178571428572,219.57722377232147L145.50857142857143,229.06903459821433L146.64535714285714,193.21108258928575L147.78214285714287,200.59360212053573L148.91892857142858,219.57722377232147L150.0557142857143,203.75753906250003L151.1925,214.30399553571434L152.3292857142857,200.59360212053573L153.46607142857144,186.88320870535716L154.60285714285715,185.82856305803577L155.73964285714285,201.64824776785719L156.87642857142856,200.59360212053573L158.01321428571427,214.30399553571434L159.15,204.81218470982148L160.2867857142857,205.8668303571429L161.42357142857142,188.99250000000004L162.56035714285716,188.99250000000004L163.69714285714286,198.4843108258929L164.83392857142857,214.30399553571434L165.97071428571428,196.37501953125002L167.1075,181.60998046875005L168.24428571428572,180.5553348214286L169.38107142857143,156.29848493303578L170.51785714285714,185.82856305803577L171.65464285714287,182.66462611607145L172.79142857142855,186.88320870535716L173.9282142857143,194.2657282366072L175.065,197.42966517857147L176.2017857142857,179.50068917410718L177.33857142857144,176.33675223214289L178.47535714285715,172.11816964285717L179.61214285714286,172.11816964285717L180.74892857142856,164.73565011160716L181.88571428571427,162.62635881696434L183.0225,170.00887834821432L184.15928571428572,170.00887834821432L185.29607142857142,183.7192717633929L186.43285714285716,158.4077762276786L187.56964285714287,160.51706752232144L188.70642857142857,153.13454799107149L189.84321428571428,161.5717131696429L190.98,164.73565011160716L192.11678571428573,165.7902957589286L193.25357142857143,178.44604352678576L194.39035714285714,174.22746093750004L195.52714285714285,161.5717131696429L196.66392857142856,156.29848493303578L197.8007142857143,160.51706752232144L198.9375,182.66462611607145L200.07428571428574,146.8066741071429L201.21107142857142,160.51706752232144L202.34785714285715,162.62635881696434L203.48464285714286,166.84494140625006L204.62142857142854,163.68100446428576L205.75821428571427,170.00887834821432L206.895,144.69738281250005L208.03178571428575,142.58809151785718L209.16857142857143,146.8066741071429L210.30535714285713,147.86131975446432L211.44214285714287,173.17281529017862L212.57892857142855,154.18919363839288L213.71571428571428,170.00887834821432L214.85250000000002,162.62635881696434L215.9892857142857,139.42415457589289L217.12607142857144,161.5717131696429L218.26285714285714,170.00887834821432L219.39964285714285,179.50068917410718L220.53642857142856,171.06352399553577L221.6732142857143,130.98698939732148L222.81000000000003,155.24383928571433L223.9467857142857,158.4077762276786L225.08357142857145,136.26021763392862L226.22035714285715,140.47880022321434L227.35714285714283,154.18919363839288L228.49392857142857,151.0252566964286L229.6307142857143,142.58809151785718L230.76749999999998,155.24383928571433L231.90428571428572,148.91596540178577L233.04107142857143,155.24383928571433L234.17785714285714,147.86131975446432L235.31464285714284,129.93234375000006L236.45142857142858,149.97061104910716L237.58821428571432,135.20557198660717L238.725,148.91596540178577L239.86178571428573,148.91596540178577L240.99857142857144,149.97061104910716L242.13535714285712,151.0252566964286L243.27214285714285,127.82305245535716L244.4089285714286,134.15092633928577L245.54571428571427,134.15092633928577L246.6825,139.42415457589289L247.8192857142857,145.75202845982147L248.95607142857142,135.20557198660717L250.09285714285713,135.20557198660717L251.22964285714286,142.58809151785718L252.36642857142854,154.18919363839288L253.50321428571428,148.91596540178577L254.64000000000001,146.8066741071429L255.77678571428572,123.6044698660715L256.9135714285714,125.71376116071431L258.05035714285714,135.20557198660717L259.1871428571429,142.58809151785718L260.32392857142855,138.3695089285715L261.4607142857143,136.26021763392862L262.5975,133.09628069196432L263.7342857142857,144.69738281250005L264.87107142857144,124.65911551339289L266.0078571428572,132.04163504464287L267.14464285714286,125.71376116071431L268.2814285714286,144.69738281250005L269.41821428571427,124.65911551339289L270.555,144.69738281250005L271.6917857142857,130.98698939732148L272.8285714285714,116.22195033482149L273.96535714285716,140.47880022321434L275.10214285714284,114.11265904017858L276.2389285714286,128.8776981026786L277.3757142857143,120.44053292410717L278.5125,120.44053292410717L279.6492857142857,129.93234375000006L280.78607142857146,115.16730468750006L281.92285714285714,123.6044698660715L283.0596428571429,133.09628069196432L284.19642857142856,133.09628069196432L285.3332142857143,127.82305245535716L286.46999999999997,136.26021763392862L287.6067857142857,109.8940764508929L288.74357142857144,130.98698939732148L289.8803571428571,127.82305245535716L291.01714285714286,126.76840680803576L292.1539285714286,107.78478515625005L293.2907142857143,121.4951785714286L294.4275,127.82305245535716L295.56428571428575,117.27659598214291L296.7010714285714,116.22195033482149L297.83785714285716,127.82305245535716L298.97464285714284,112.00336774553574L300.1114285714286,125.71376116071431L301.24821428571425,132.04163504464287L302.385,107.78478515625005L303.5217857142857,128.8776981026786L304.6585714285714,109.8940764508929L305.79535714285714,109.8940764508929L306.9321428571429,113.05801339285716L308.06892857142856,113.05801339285716L309.2057142857143,124.65911551339289L310.34250000000003,112.00336774553574L311.4792857142857,114.11265904017858L312.61607142857144,107.78478515625005L313.7528571428571,127.82305245535716L314.88964285714286,118.33124162946433L316.02642857142854,105.67549386160715L317.1632142857143,114.11265904017858L318.3,120.44053292410717L319.4367857142857,100.40226562500004L320.5735714285714,108.83943080357147L321.71035714285716,115.16730468750006L322.84714285714284,101.45691127232146L323.9839285714286,102.51155691964289L325.1207142857143,102.51155691964289L326.2575,118.33124162946433L327.39428571428573,104.62084821428579L328.5310714285714,107.78478515625005L329.66785714285714,110.94872209821432L330.8046428571428,107.78478515625005L331.94142857142856,106.73013950892863L333.0782142857143,110.94872209821432L334.215,103.56620256696431L335.3517857142857,102.51155691964289L336.48857142857145,116.22195033482149L337.6253571428571,100.40226562500004L338.76214285714286,116.22195033482149L339.8989285714286,114.11265904017858L341.0357142857143,107.78478515625005L342.1725,109.8940764508929L343.30928571428575,107.78478515625005L344.44607142857143,94.07439174107151L345.5828571428571,98.29297433035714L346.71964285714284,104.62084821428579L347.8564285714286,118.33124162946433L348.99321428571426,110.94872209821432L350.13,106.73013950892863L351.26678571428573,101.45691127232146L352.4035714285714,93.01974609375003L353.54035714285715,90.91045479910719L354.6771428571429,99.34761997767862L355.81392857142856,114.11265904017858L356.9507142857143,98.29297433035714L358.08750000000003,105.67549386160715L359.2242857142857,115.16730468750006L360.3610714285714,106.73013950892863L361.49785714285713,96.18368303571435L362.63464285714286,104.62084821428579L363.77142857142854,97.23832868303577L364.9082142857143,87.74651785714286L366.045,100.40226562500004L367.1817857142857,116.22195033482149L368.31857142857143,96.18368303571435L369.45535714285717,103.56620256696431L370.59214285714285,106.73013950892863L371.7289285714286,86.6918722098215L372.8657142857143,98.29297433035714L374.0025,93.01974609375003L375.13928571428573,94.07439174107151L376.2760714285714,95.12903738839287L377.41285714285715,101.45691127232146L378.5496428571428,100.40226562500004L379.68642857142856,93.01974609375003L380.8232142857143,99.34761997767862L381.96,89.85580915178576L383.0967857142857,101.45691127232146L384.23357142857145,98.29297433035714L385.37035714285713,94.07439174107151L386.50714285714287,90.91045479910719L387.6439285714286,98.29297433035714L388.7807142857143,99.34761997767862L389.9175,100.40226562500004L391.0542857142857,99.34761997767862L392.19107142857143,90.91045479910719L393.3278571428571,94.07439174107151L394.46464285714285,96.18368303571435L395.6014285714286,99.34761997767862L396.73821428571426,105.67549386160715L397.875,96.18368303571435L399.01178571428574,94.07439174107151L400.1485714285715,95.12903738839287L401.2853571428572,89.85580915178576L402.42214285714283,84.5825809151786L403.55892857142857,91.96510044642861L404.6957142857143,99.34761997767862L405.8325,102.51155691964289L406.9692857142857,97.23832868303577L408.10607142857145,103.56620256696431L409.2428571428571,96.18368303571435L410.3796428571428,84.5825809151786L411.51642857142855,94.07439174107151L412.6532142857143,88.80116350446434L413.79,99.34761997767862L414.92678571428576,91.96510044642861L416.0635714285715,79.30935267857149L417.2003571428571,93.01974609375003L418.33714285714285,94.07439174107151L419.4739285714286,90.91045479910719L420.61071428571427,104.62084821428579L421.7475,86.6918722098215L422.88428571428574,98.29297433035714L424.02107142857136,89.85580915178576L425.1578571428571,102.51155691964289L426.29464285714283,90.91045479910719L427.43142857142857,77.20006138392858L428.5682142857143,89.85580915178576L429.70500000000004,82.47328962053575L430.8417857142858,98.29297433035714L431.9785714285714,86.6918722098215L433.11535714285714,84.5825809151786L434.25214285714287,100.40226562500004L435.3889285714286,95.12903738839287L436.5257142857143,78.25470703125006L437.6625,96.18368303571435L438.7992857142857,85.63722656250002L439.9360714285714,91.96510044642861L441.0728571428571,90.91045479910719L442.20964285714285,83.52793526785723L443.3464285714286,94.07439174107151L444.4832142857143,96.18368303571435L445.62000000000006,84.5825809151786L446.7567857142857,80.36399832589291L447.8935714285714,91.96510044642861L449.03035714285716,81.41864397321433L450.1671428571429,83.52793526785723L451.30392857142857,83.52793526785723L452.4407142857143,77.20006138392858L453.5775,96.18368303571435L454.71428571428567,98.29297433035714L455.8510714285714,83.52793526785723L456.98785714285714,86.6918722098215L458.1246428571429,86.6918722098215L459.2614285714286,82.47328962053575L460.39821428571435,86.6918722098215L461.53499999999997,94.07439174107151L462.6717857142857,74.03612444196432L463.80857142857144,96.18368303571435L464.9453571428572,85.63722656250002L466.08214285714286,95.12903738839287L467.2189285714286,90.91045479910719L468.35571428571427,85.63722656250002L469.49249999999995,85.63722656250002L470.6292857142857,84.5825809151786L471.7660714285714,80.36399832589291L472.90285714285716,77.20006138392858L474.0396428571429,86.6918722098215L475.17642857142863,78.25470703125006L476.31321428571425,83.52793526785723L477.45,81.41864397321433L478.5867857142857,79.30935267857149L479.72357142857146,84.5825809151786L480.86035714285714,87.74651785714286L481.9971428571429,85.63722656250002L483.13392857142856,77.20006138392858L484.27071428571423,71.92683314732147L485.40749999999997,90.91045479910719L486.5442857142857,75.09077008928574L487.68107142857144,76.14541573660722L488.8178571428572,81.41864397321433L489.9546428571429,88.80116350446434L491.09142857142854,80.36399832589291L492.2282142857143,78.25470703125006L493.365,81.41864397321433L494.50178571428575,79.30935267857149L495.6385714285714,82.47328962053575L496.77535714285716,85.63722656250002L497.91214285714284,82.47328962053575L499.0489285714286,80.36399832589291L500.18571428571425,69.81754185267863L501.3225,80.36399832589291L502.4592857142857,85.63722656250002L503.59607142857146,74.03612444196432L504.7328571428571,87.74651785714286L505.8696428571428,80.36399832589291L507.00642857142856,87.74651785714286L508.1432142857143,83.52793526785723L509.28000000000003,84.5825809151786L510.41678571428577,80.36399832589291L511.55357142857144,78.25470703125006L512.6903571428571,87.74651785714286L513.8271428571428,79.30935267857149L514.9639285714286,86.6918722098215L516.1007142857143,78.25470703125006L517.2375000000001,78.25470703125006L518.3742857142857,78.25470703125006L519.5110714285714,84.5825809151786L520.6478571428571,75.09077008928574L521.7846428571428,74.03612444196432L522.9214285714286,82.47328962053575L524.0582142857143,88.80116350446434L525.195,72.9814787946429L526.3317857142857,70.87218750000005L527.4685714285714,80.36399832589291L528.6053571428571,82.47328962053575L529.7421428571429,81.41864397321433L530.8789285714286,90.91045479910719L532.0157142857144,75.09077008928574L533.1525,79.30935267857149L534.2892857142857,77.20006138392858L535.4260714285714,76.14541573660722L536.5628571428572,83.52793526785723L537.6996428571429,88.80116350446434L538.8364285714285,76.14541573660722L539.9732142857143,76.14541573660722L541.11,72.9814787946429L542.2467857142857,78.25470703125006L543.3835714285714,75.09077008928574L544.5203571428572,78.25470703125006L545.6571428571428,75.09077008928574L546.7939285714286,77.20006138392858L547.9307142857143,81.41864397321433L549.0675,81.41864397321433L550.2042857142857,77.20006138392858L551.3410714285715,77.20006138392858L552.4778571428571,75.09077008928574L553.6146428571428,69.81754185267863L554.7514285714286,85.63722656250002L555.8882142857143,81.41864397321433L557.025,81.41864397321433L558.1617857142857,76.14541573660722L559.2985714285714,75.09077008928574L560.4353571428571,74.03612444196432L561.5721428571429,78.25470703125006L562.7089285714286,82.47328962053575L563.8457142857143,72.9814787946429L564.9825,79.30935267857149L566.1192857142858,77.20006138392858L567.2560714285714,78.25470703125006L568.3928571428571,80.36399832589291L569.5296428571429,80.36399832589291L570.6664285714286,67.70825055803579L571.8032142857143,69.81754185267863L572.9399999999999,81.41864397321433L574.0767857142857,80.36399832589291L575.2135714285714,71.92683314732147L576.3503571428572,76.14541573660722L577.4871428571429,72.9814787946429L578.6239285714286,66.65360491071431L579.7607142857142,72.9814787946429L580.8975,68.76289620535721L582.0342857142857,78.25470703125006L583.1710714285714,72.9814787946429L584.3078571428572,76.14541573660722L585.4446428571429,69.81754185267863L586.5814285714285,75.09077008928574L587.7182142857142,59.271085379464296L588.855,76.14541573660722L589.9917857142857,69.81754185267863L591.1285714285715,75.09077008928574L592.2653571428572,78.25470703125006L593.4021428571428,72.9814787946429L594.5389285714285,75.09077008928574L595.6757142857143,75.09077008928574L596.8125,70.87218750000005L597.9492857142857,72.9814787946429L599.0860714285715,80.36399832589291L600.2228571428572,74.03612444196432L601.3596428571428,74.03612444196432L602.4964285714285,67.70825055803579L603.6332142857143,77.20006138392858L604.77,75.09077008928574L605.9067857142858,76.14541573660722L607.0435714285715,72.9814787946429L608.1803571428571,69.81754185267863L609.3171428571428,67.70825055803579L610.4539285714286,76.14541573660722L611.5907142857143,71.92683314732147L612.7275,70.87218750000005L613.8642857142858,72.9814787946429L615.0010714285714,69.81754185267863L616.1378571428571,71.92683314732147L617.2746428571428,67.70825055803579L618.4114285714286,74.03612444196432L619.5482142857143,67.70825055803579L620.6850000000001,66.65360491071431L621.8217857142857,75.09077008928574L622.9585714285714,74.03612444196432L624.0953571428571,68.76289620535721L625.2321428571429,70.87218750000005L626.3689285714286,72.9814787946429L627.5057142857142,64.54431361607146L628.6425,68.76289620535721L629.7792857142857,66.65360491071431L630.9160714285714,70.87218750000005L632.0528571428571,68.76289620535721L633.1896428571429,75.09077008928574L634.3264285714286,66.65360491071431L635.4632142857143,68.76289620535721L636.6,72.9814787946429L637.7367857142857,76.14541573660722L638.8735714285714,69.81754185267863L640.0103571428572,65.59895926339289L641.1471428571429,74.03612444196432L642.2839285714285,78.25470703125006L643.4207142857143,80.36399832589291L644.5575,65.59895926339289L645.6942857142857,66.65360491071431L646.8310714285714,70.87218750000005L647.9678571428572,78.25470703125006L649.1046428571428,75.09077008928574L650.2414285714286,68.76289620535721L651.3782142857143,67.70825055803579L652.515,66.65360491071431L653.6517857142857,63.48966796875004L654.7885714285715,77.20006138392858L655.9253571428571,72.9814787946429L657.0621428571428,79.30935267857149L658.1989285714286,70.87218750000005L659.3357142857143,63.48966796875004L660.4725,64.54431361607146L661.6092857142856,75.09077008928574L662.7460714285714,69.81754185267863L663.8828571428571,74.03612444196432L665.0196428571429,63.48966796875004L666.1564285714286,76.14541573660722L667.2932142857143,67.70825055803579L668.43,64.54431361607146L669.5667857142857,67.70825055803579L670.7035714285714,67.70825055803579L671.8403571428572,77.20006138392858L672.9771428571429,63.48966796875004L674.1139285714286,64.54431361607146L675.2507142857143,62.43502232142862L676.3874999999999,64.54431361607146L677.5242857142857,70.87218750000005L678.6610714285714,72.9814787946429L679.7978571428572,64.54431361607146L680.9346428571429,70.87218750000005L682.0714285714286,65.59895926339289L683.2082142857142,67.70825055803579L684.345,68.76289620535721L685.4817857142857,65.59895926339289L686.6185714285715,67.70825055803579L687.7553571428572,70.87218750000005L688.8921428571429,71.92683314732147L690.0289285714285,66.65360491071431L691.1657142857142,71.92683314732147L692.3025,66.65360491071431L693.4392857142857,70.87218750000005L694.5760714285715,67.70825055803579L695.7128571428572,71.92683314732147L696.8496428571428,64.54431361607146L697.9864285714285,63.48966796875004L699.1232142857143,65.59895926339289L700.26,66.65360491071431L701.3967857142858,68.76289620535721L702.5335714285715,67.70825055803579L703.6703571428571,68.76289620535721L704.8071428571428,67.70825055803579L705.9439285714285,63.48966796875004L707.0807142857143,65.59895926339289L708.2175,63.48966796875004L709.3542857142858,64.54431361607146L710.4910714285714,66.65360491071431L711.6278571428571,63.48966796875004L712.7646428571428,64.54431361607146L713.9014285714286,63.48966796875004L715.0382142857143,68.76289620535721L716.1750000000001,63.48966796875004L717.3117857142857,65.59895926339289L718.4485714285714,58.216439732142874L719.5853571428571,64.54431361607146L720.7221428571428,60.325731026785775L721.8589285714286,69.81754185267863L722.9957142857143,66.65360491071431L724.1325,72.9814787946429L725.2692857142857,60.325731026785775L726.4060714285714,65.59895926339289L727.5428571428571,63.48966796875004L728.6796428571429,62.43502232142862L729.8164285714286,76.14541573660722L730.9532142857144,69.81754185267863L732.09,62.43502232142862L733.2267857142857,67.70825055803579L734.3635714285714,63.48966796875004L735.5003571428572,66.65360491071431L736.6371428571429,75.09077008928574L737.7739285714285,65.59895926339289L738.9107142857143,65.59895926339289" style="fill: none;" fill="none"></path></g></g></g></g></g></g><g transform="translate(58, 377)" clip-path="url(#clip_1)"><clipPath id="clip_1"><rect width="795" height="21"></rect></clipPath><g><g><line x1="0" y1="0" x2="0" y2="5" style="visibility: inherit;" fill="rgb(0, 0, 0)" stroke="rgb(204, 204, 204)" stroke-width="1px"></line><line x1="56.83928571428571" y1="0" x2="56.83928571428571" y2="5" style="visibility: inherit;" fill="rgb(0, 0, 0)" stroke="rgb(204, 204, 204)" stroke-width="1px"></line><line x1="113.67857142857142" y1="0" x2="113.67857142857142" y2="5" style="visibility: inherit;" fill="rgb(0, 0, 0)" stroke="rgb(204, 204, 204)" stroke-width="1px"></line><line x1="170.51785714285714" y1="0" x2="170.51785714285714" y2="5" style="visibility: inherit;" fill="rgb(0, 0, 0)" stroke="rgb(204, 204, 204)" stroke-width="1px"></line><line x1="227.35714285714283" y1="0" x2="227.35714285714283" y2="5" style="visibility: inherit;" fill="rgb(0, 0, 0)" stroke="rgb(204, 204, 204)" stroke-width="1px"></line><line x1="284.19642857142856" y1="0" x2="284.19642857142856" y2="5" style="visibility: inherit;" fill="rgb(0, 0, 0)" stroke="rgb(204, 204, 204)" stroke-width="1px"></line><line x1="341.0357142857143" y1="0" x2="341.0357142857143" y2="5" style="visibility: inherit;" fill="rgb(0, 0, 0)" stroke="rgb(204, 204, 204)" stroke-width="1px"></line><line x1="397.875" y1="0" x2="397.875" y2="5" style="visibility: inherit;" fill="rgb(0, 0, 0)" stroke="rgb(204, 204, 204)" stroke-width="1px"></line><line x1="454.71428571428567" y1="0" x2="454.71428571428567" y2="5" style="visibility: inherit;" fill="rgb(0, 0, 0)" stroke="rgb(204, 204, 204)" stroke-width="1px"></line><line x1="511.55357142857144" y1="0" x2="511.55357142857144" y2="5" style="visibility: inherit;" fill="rgb(0, 0, 0)" stroke="rgb(204, 204, 204)" stroke-width="1px"></line><line x1="568.3928571428571" y1="0" x2="568.3928571428571" y2="5" style="visibility: inherit;" fill="rgb(0, 0, 0)" stroke="rgb(204, 204, 204)" stroke-width="1px"></line><line x1="625.2321428571429" y1="0" x2="625.2321428571429" y2="5" style="visibility: inherit;" fill="rgb(0, 0, 0)" stroke="rgb(204, 204, 204)" stroke-width="1px"></line><line x1="682.0714285714286" y1="0" x2="682.0714285714286" y2="5" style="visibility: inherit;" fill="rgb(0, 0, 0)" stroke="rgb(204, 204, 204)" stroke-width="1px"></line><line x1="738.9107142857143" y1="0" x2="738.9107142857143" y2="5" style="visibility: inherit;" fill="rgb(0, 0, 0)" stroke="rgb(204, 204, 204)" stroke-width="1px"></line><line x1="795.75" y1="0" x2="795.75" y2="5" style="visibility: inherit;" fill="rgb(0, 0, 0)" stroke="rgb(204, 204, 204)" stroke-width="1px"></line></g><g transform="translate(0, 8)"><text x="0" y="0" dx="0em" dy="0.95em" style="text-anchor: middle; visibility: hidden; font-family: &quot;Helvetica Neue&quot;, sans-serif; font-size: 12px; font-weight: 200;" fill="rgb(50, 49, 63)" stroke="none" stroke-width="1px">-500</text><text x="56.83928571428571" y="0" dx="0em" dy="0.95em" style="text-anchor: middle; visibility: inherit; font-family: &quot;Helvetica Neue&quot;, sans-serif; font-size: 12px; font-weight: 200;" fill="rgb(50, 49, 63)" stroke="none" stroke-width="1px">0</text><text x="113.67857142857142" y="0" dx="0em" dy="0.95em" style="text-anchor: middle; visibility: inherit; font-family: &quot;Helvetica Neue&quot;, sans-serif; font-size: 12px; font-weight: 200;" fill="rgb(50, 49, 63)" stroke="none" stroke-width="1px">500</text><text x="170.51785714285714" y="0" dx="0em" dy="0.95em" style="text-anchor: middle; visibility: inherit; font-family: &quot;Helvetica Neue&quot;, sans-serif; font-size: 12px; font-weight: 200;" fill="rgb(50, 49, 63)" stroke="none" stroke-width="1px">1k</text><text x="227.35714285714283" y="0" dx="0em" dy="0.95em" style="text-anchor: middle; visibility: inherit; font-family: &quot;Helvetica Neue&quot;, sans-serif; font-size: 12px; font-weight: 200;" fill="rgb(50, 49, 63)" stroke="none" stroke-width="1px">1.5k</text><text x="284.19642857142856" y="0" dx="0em" dy="0.95em" style="text-anchor: middle; visibility: inherit; font-family: &quot;Helvetica Neue&quot;, sans-serif; font-size: 12px; font-weight: 200;" fill="rgb(50, 49, 63)" stroke="none" stroke-width="1px">2k</text><text x="341.0357142857143" y="0" dx="0em" dy="0.95em" style="text-anchor: middle; visibility: inherit; font-family: &quot;Helvetica Neue&quot;, sans-serif; font-size: 12px; font-weight: 200;" fill="rgb(50, 49, 63)" stroke="none" stroke-width="1px">2.5k</text><text x="397.875" y="0" dx="0em" dy="0.95em" style="text-anchor: middle; visibility: inherit; font-family: &quot;Helvetica Neue&quot;, sans-serif; font-size: 12px; font-weight: 200;" fill="rgb(50, 49, 63)" stroke="none" stroke-width="1px">3k</text><text x="454.71428571428567" y="0" dx="0em" dy="0.95em" style="text-anchor: middle; visibility: inherit; font-family: &quot;Helvetica Neue&quot;, sans-serif; font-size: 12px; font-weight: 200;" fill="rgb(50, 49, 63)" stroke="none" stroke-width="1px">3.5k</text><text x="511.55357142857144" y="0" dx="0em" dy="0.95em" style="text-anchor: middle; visibility: inherit; font-family: &quot;Helvetica Neue&quot;, sans-serif; font-size: 12px; font-weight: 200;" fill="rgb(50, 49, 63)" stroke="none" stroke-width="1px">4k</text><text x="568.3928571428571" y="0" dx="0em" dy="0.95em" style="text-anchor: middle; visibility: inherit; font-family: &quot;Helvetica Neue&quot;, sans-serif; font-size: 12px; font-weight: 200;" fill="rgb(50, 49, 63)" stroke="none" stroke-width="1px">4.5k</text><text x="625.2321428571429" y="0" dx="0em" dy="0.95em" style="text-anchor: middle; visibility: inherit; font-family: &quot;Helvetica Neue&quot;, sans-serif; font-size: 12px; font-weight: 200;" fill="rgb(50, 49, 63)" stroke="none" stroke-width="1px">5k</text><text x="682.0714285714286" y="0" dx="0em" dy="0.95em" style="text-anchor: middle; visibility: inherit; font-family: &quot;Helvetica Neue&quot;, sans-serif; font-size: 12px; font-weight: 200;" fill="rgb(50, 49, 63)" stroke="none" stroke-width="1px">5.5k</text><text x="738.9107142857143" y="0" dx="0em" dy="0.95em" style="text-anchor: middle; visibility: inherit; font-family: &quot;Helvetica Neue&quot;, sans-serif; font-size: 12px; font-weight: 200;" fill="rgb(50, 49, 63)" stroke="none" stroke-width="1px">6k</text><text x="795.75" y="0" dx="0em" dy="0.95em" style="text-anchor: middle; visibility: hidden; font-family: &quot;Helvetica Neue&quot;, sans-serif; font-size: 12px; font-weight: 200;" fill="rgb(50, 49, 63)" stroke="none" stroke-width="1px">6.5k</text></g><line x1="0" y1="0" x2="795.75" y2="0" fill="rgb(0, 0, 0)" stroke="rgb(204, 204, 204)" stroke-width="1px"></line></g></g></g></g></svg>