<svg viewBox="0 0 853.7500610351562 399.9851379394531" xmlns="http://www.w3.org/2000/svg"><g><g><g><g><g><line x1="58" y1="377.985" x2="53" y2="377.985" style="visibility: inherit;" fill="rgb(0, 0, 0)" stroke="rgb(204, 204, 204)" stroke-width="1px"></line><line x1="58" y1="343.6227272727273" x2="53" y2="343.6227272727273" style="visibility: inherit;" fill="rgb(0, 0, 0)" stroke="rgb(204, 204, 204)" stroke-width="1px"></line><line x1="58" y1="309.26045454545454" x2="53" y2="309.26045454545454" style="visibility: inherit;" fill="rgb(0, 0, 0)" stroke="rgb(204, 204, 204)" stroke-width="1px"></line><line x1="58" y1="274.89818181818185" x2="53" y2="274.89818181818185" style="visibility: inherit;" fill="rgb(0, 0, 0)" stroke="rgb(204, 204, 204)" stroke-width="1px"></line><line x1="58" y1="240.5359090909091" x2="53" y2="240.5359090909091" style="visibility: inherit;" fill="rgb(0, 0, 0)" stroke="rgb(204, 204, 204)" stroke-width="1px"></line><line x1="58" y1="206.1736363636364" x2="53" y2="206.1736363636364" style="visibility: inherit;" fill="rgb(0, 0, 0)" stroke="rgb(204, 204, 204)" stroke-width="1px"></line><line x1="58" y1="171.81136363636367" x2="53" y2="171.81136363636367" style="visibility: inherit;" fill="rgb(0, 0, 0)" stroke="rgb(204, 204, 204)" stroke-width="1px"></line><line x1="58" y1="137.44909090909093" x2="53" y2="137.44909090909093" style="visibility: inherit;" fill="rgb(0, 0, 0)" stroke="rgb(204, 204, 204)" stroke-width="1px"></line><line x1="58" y1="103.08681818181822" x2="53" y2="103.08681818181822" style="visibility: inherit;" fill="rgb(0, 0, 0)" stroke="rgb(204, 204, 204)" stroke-width="1px"></line><line x1="58" y1="68.72454545454548" x2="53" y2="68.72454545454548" style="visibility: inherit;" fill="rgb(0, 0, 0)" stroke="rgb(204, 204, 204)" stroke-width="1px"></line><line x1="58" y1="34.362272727272796" x2="53" y2="34.362272727272796" style="visibility: inherit;" fill="rgb(0, 0, 0)" stroke="rgb(204, 204, 204)" stroke-width="1px"></line><line x1="58" y1="0" x2="53" y2="0" style="visibility: inherit;" fill="rgb(0, 0, 0)" stroke="rgb(204, 204, 204)" stroke-width="1px"></line></g><g transform="translate(48, 0)"><text x="0" y="377.985" dx="0em" dy="0.3em" style="text-anchor: end; visibility: hidden; font-family: &quot;Helvetica Neue&quot;, sans-serif; font-size: 12px; font-weight: 200;" fill="rgb(50, 49, 63)" stroke="none" stroke-width="1px">0.45</text><text x="0" y="343.6227272727273" dx="0em" dy="0.3em" style="text-anchor: end; visibility: inherit; font-family: &quot;Helvetica Neue&quot;, sans-serif; font-size: 12px; font-weight: 200;" fill="rgb(50, 49, 63)" stroke="none" stroke-width="1px">0.5</text><text x="0" y="309.26045454545454" dx="0em" dy="0.3em" style="text-anchor: end; visibility: inherit; font-family: &quot;Helvetica Neue&quot;, sans-serif; font-size: 12px; font-weight: 200;" fill="rgb(50, 49, 63)" stroke="none" stroke-width="1px">0.55</text><text x="0" y="274.89818181818185" dx="0em" dy="0.3em" style="text-anchor: end; visibility: inherit; font-family: &quot;Helvetica Neue&quot;, sans-serif; font-size: 12px; font-weight: 200;" fill="rgb(50, 49, 63)" stroke="none" stroke-width="1px">0.6</text><text x="0" y="240.5359090909091" dx="0em" dy="0.3em" style="text-anchor: end; visibility: inherit; font-family: &quot;Helvetica Neue&quot;, sans-serif; font-size: 12px; font-weight: 200;" fill="rgb(50, 49, 63)" stroke="none" stroke-width="1px">0.65</text><text x="0" y="206.1736363636364" dx="0em" dy="0.3em" style="text-anchor: end; visibility: inherit; font-family: &quot;Helvetica Neue&quot;, sans-serif; font-size: 12px; font-weight: 200;" fill="rgb(50, 49, 63)" stroke="none" stroke-width="1px">0.7</text><text x="0" y="171.81136363636367" dx="0em" dy="0.3em" style="text-anchor: end; visibility: inherit; font-family: &quot;Helvetica Neue&quot;, sans-serif; font-size: 12px; font-weight: 200;" fill="rgb(50, 49, 63)" stroke="none" stroke-width="1px">0.75</text><text x="0" y="137.44909090909093" dx="0em" dy="0.3em" style="text-anchor: end; visibility: inherit; font-family: &quot;Helvetica Neue&quot;, sans-serif; font-size: 12px; font-weight: 200;" fill="rgb(50, 49, 63)" stroke="none" stroke-width="1px">0.8</text><text x="0" y="103.08681818181822" dx="0em" dy="0.3em" style="text-anchor: end; visibility: inherit; font-family: &quot;Helvetica Neue&quot;, sans-serif; font-size: 12px; font-weight: 200;" fill="rgb(50, 49, 63)" stroke="none" stroke-width="1px">0.85</text><text x="0" y="68.72454545454548" dx="0em" dy="0.3em" style="text-anchor: end; visibility: inherit; font-family: &quot;Helvetica Neue&quot;, sans-serif; font-size: 12px; font-weight: 200;" fill="rgb(50, 49, 63)" stroke="none" stroke-width="1px">0.9</text><text x="0" y="34.362272727272796" dx="0em" dy="0.3em" style="text-anchor: end; visibility: inherit; font-family: &quot;Helvetica Neue&quot;, sans-serif; font-size: 12px; font-weight: 200;" fill="rgb(50, 49, 63)" stroke="none" stroke-width="1px">0.95</text><text x="0" y="0" dx="0em" dy="0.3em" style="text-anchor: end; visibility: hidden; font-family: &quot;Helvetica Neue&quot;, sans-serif; font-size: 12px; font-weight: 200;" fill="rgb(50, 49, 63)" stroke="none" stroke-width="1px">1</text></g><line x1="58" y1="0" x2="58" y2="377.985" fill="rgb(0, 0, 0)" stroke="rgb(204, 204, 204)" stroke-width="1px"></line></g></g><g transform="translate(58, 0)" clip-path="url(#clip_0)"><clipPath id="clip_0"><rect width="795" height="377"></rect></clipPath><g><g><g><line x1="0" y1="0" x2="0" y2="377.985" fill="rgb(0, 0, 0)" stroke="rgb(60, 60, 60)" stroke-width="1px" opacity="0.25"></line><line x1="56.83928571428571" y1="0" x2="56.83928571428571" y2="377.985" fill="rgb(0, 0, 0)" stroke="rgb(60, 60, 60)" stroke-width="1px" opacity="0.25"></line><line x1="113.67857142857142" y1="0" x2="113.67857142857142" y2="377.985" fill="rgb(0, 0, 0)" stroke="rgb(60, 60, 60)" stroke-width="1px" opacity="0.25"></line><line x1="170.51785714285714" y1="0" x2="170.51785714285714" y2="377.985" fill="rgb(0, 0, 0)" stroke="rgb(60, 60, 60)" stroke-width="1px" opacity="0.25"></line><line x1="227.35714285714283" y1="0" x2="227.35714285714283" y2="377.985" fill="rgb(0, 0, 0)" stroke="rgb(60, 60, 60)" stroke-width="1px" opacity="0.25"></line><line x1="284.19642857142856" y1="0" x2="284.19642857142856" y2="377.985" fill="rgb(0, 0, 0)" stroke="rgb(60, 60, 60)" stroke-width="1px" opacity="0.25"></line><line x1="341.0357142857143" y1="0" x2="341.0357142857143" y2="377.985" fill="rgb(0, 0, 0)" stroke="rgb(60, 60, 60)" stroke-width="1px" opacity="0.25"></line><line x1="397.875" y1="0" x2="397.875" y2="377.985" fill="rgb(0, 0, 0)" stroke="rgb(60, 60, 60)" stroke-width="1px" opacity="0.25"></line><line x1="454.71428571428567" y1="0" x2="454.71428571428567" y2="377.985" fill="rgb(0, 0, 0)" stroke="rgb(60, 60, 60)" stroke-width="1px" opacity="0.25"></line><line x1="511.55357142857144" y1="0" x2="511.55357142857144" y2="377.985" fill="rgb(0, 0, 0)" stroke="rgb(60, 60, 60)" stroke-width="1px" opacity="0.25"></line><line x1="568.3928571428571" y1="0" x2="568.3928571428571" y2="377.985" fill="rgb(0, 0, 0)" stroke="rgb(60, 60, 60)" stroke-width="1px" opacity="0.25"></line><line x1="625.2321428571429" y1="0" x2="625.2321428571429" y2="377.985" fill="rgb(0, 0, 0)" stroke="rgb(60, 60, 60)" stroke-width="1px" opacity="0.25"></line><line x1="682.0714285714286" y1="0" x2="682.0714285714286" y2="377.985" fill="rgb(0, 0, 0)" stroke="rgb(60, 60, 60)" stroke-width="1px" opacity="0.25"></line><line x1="738.9107142857143" y1="0" x2="738.9107142857143" y2="377.985" fill="rgb(0, 0, 0)" stroke="rgb(60, 60, 60)" stroke-width="1px" opacity="0.25"></line><line x1="795.75" y1="0" x2="795.75" y2="377.985" fill="rgb(0, 0, 0)" stroke="rgb(60, 60, 60)" stroke-width="1px" opacity="0.25"></line></g><g><line x1="0" y1="377.985" x2="795.75" y2="377.985" fill="rgb(0, 0, 0)" stroke="rgb(60, 60, 60)" stroke-width="1px" opacity="0.25"></line><line x1="0" y1="343.6227272727273" x2="795.75" y2="343.6227272727273" fill="rgb(0, 0, 0)" stroke="rgb(60, 60, 60)" stroke-width="1px" opacity="0.25"></line><line x1="0" y1="309.26045454545454" x2="795.75" y2="309.26045454545454" fill="rgb(0, 0, 0)" stroke="rgb(60, 60, 60)" stroke-width="1px" opacity="0.25"></line><line x1="0" y1="274.89818181818185" x2="795.75" y2="274.89818181818185" fill="rgb(0, 0, 0)" stroke="rgb(60, 60, 60)" stroke-width="1px" opacity="0.25"></line><line x1="0" y1="240.5359090909091" x2="795.75" y2="240.5359090909091" fill="rgb(0, 0, 0)" stroke="rgb(60, 60, 60)" stroke-width="1px" opacity="0.25"></line><line x1="0" y1="206.1736363636364" x2="795.75" y2="206.1736363636364" fill="rgb(0, 0, 0)" stroke="rgb(60, 60, 60)" stroke-width="1px" opacity="0.25"></line><line x1="0" y1="171.81136363636367" x2="795.75" y2="171.81136363636367" fill="rgb(0, 0, 0)" stroke="rgb(60, 60, 60)" stroke-width="1px" opacity="0.25"></line><line x1="0" y1="137.44909090909093" x2="795.75" y2="137.44909090909093" fill="rgb(0, 0, 0)" stroke="rgb(60, 60, 60)" stroke-width="1px" opacity="0.25"></line><line x1="0" y1="103.08681818181822" x2="795.75" y2="103.08681818181822" fill="rgb(0, 0, 0)" stroke="rgb(60, 60, 60)" stroke-width="1px" opacity="0.25"></line><line x1="0" y1="68.72454545454548" x2="795.75" y2="68.72454545454548" fill="rgb(0, 0, 0)" stroke="rgb(60, 60, 60)" stroke-width="1px" opacity="0.25"></line><line x1="0" y1="34.362272727272796" x2="795.75" y2="34.362272727272796" fill="rgb(0, 0, 0)" stroke="rgb(60, 60, 60)" stroke-width="1px" opacity="0.25"></line><line x1="0" y1="0" x2="795.75" y2="0" fill="rgb(0, 0, 0)" stroke="rgb(60, 60, 60)" stroke-width="1px" opacity="0.25"></line></g></g></g><g><g><line x1="0" y1="687.2454545454545" x2="795.75" y2="687.2454545454545" fill="rgb(0, 0, 0)" stroke="rgb(153, 153, 153)" stroke-width="1.5px"></line></g></g><g><g><line x1="56.83928571428571" y1="0" x2="56.83928571428571" y2="377.985" fill="rgb(0, 0, 0)" stroke="rgb(153, 153, 153)" stroke-width="1.5px"></line></g></g><g><g><g><g><g><path stroke="rgb(255, 112, 67)" stroke-width="2px" d="M57.97607142857143,54.760595619678554L59.112857142857145,202.1298471899611L60.24964285714286,232.9672296804031L61.38642857142857,177.96003089422592L62.52321428571428,332.44625110741583L63.660000000000004,330.45281448164087L64.79678571428572,278.1793121364797L65.93357142857143,285.33069485269084L67.07035714285715,360.4861913423081L68.20714285714286,323.79148255693536L69.34392857142858,394.0048304651402L70.48071428571428,336.8756286188062L71.61749999999999,283.777519680816L72.75428571428571,333.97858165354273L73.89107142857144,371.33314791425835L75.02785714285714,418.30543445068696L76.16464285714285,396.6341606786519L77.30142857142857,319.73358169196575L78.43821428571428,254.11770763154516L79.575,309.6322166055033L80.71178571428571,387.76624464820816L81.84857142857143,361.6977649036978L82.98535714285714,294.6446389546908L84.12214285714286,324.1167906294791L85.25892857142857,387.37829123162794L86.39571428571428,324.2089247550625L87.5325,345.617412215406L88.66928571428572,412.8508526884906L89.80607142857143,354.1822628935211L90.94285714285714,310.6143612952012L92.07964285714286,380.48006700320923L93.21642857142858,376.79204697876384L94.35321428571429,298.8510032487745L95.49,246.5012544596656L96.62678571428572,201.36661571565864L97.76357142857142,209.70159054714526L98.90035714285715,200.05180181601597L100.03714285714287,206.54326474673945L101.17392857142858,283.54004004173515L102.31071428571427,331.6689520907775L103.4475,406.34475883235433L105.72107142857143,444.2089347235453L106.85785714285714,362.6820361245086L107.99464285714285,305.3653513142583L109.13142857142857,332.83807928812075L110.26821428571428,264.6389304981253L111.40500000000002,345.14033657804544L112.54178571428572,299.30440042801L113.67857142857142,374.8819216937791L114.81535714285715,424.31454716620215L117.08892857142857,388.87108583561667L118.22571428571429,376.4591879470397L119.3625,368.45334249071385L120.49928571428572,372.958534720429L121.63607142857143,342.940732117969L122.77285714285713,326.0572364861306L123.90964285714286,292.3292583168376L125.04642857142856,292.3182439732793L126.18321428571427,289.24909814582577L127.32000000000001,272.95782026999854L128.4567857142857,274.43434456726527L129.59357142857144,237.93807221830693L130.73035714285714,234.34153288825814L131.86714285714285,217.70043116170962L133.0039285714286,212.2591219922527L134.1407142857143,221.95438090657163L135.2775,202.11327839533243L136.4142857142857,234.67123883015182L137.55107142857142,212.98961769967414L138.68785714285715,203.8340069564338L139.82464285714286,185.53629534178756L140.96142857142857,196.37875299243203L142.09821428571428,175.75657683861544L143.23499999999999,178.10757978699044L144.37178571428572,179.66631434657555L145.50857142857143,179.9470042819251L146.64535714285714,181.41359589170213L147.78214285714287,178.64856926059505L148.91892857142858,179.6915587595446L150.0557142857143,184.84707240978685L151.1925,174.54432984504848L152.3292857142857,177.45307317913426L153.46607142857144,179.19375346821974L154.60285714285715,177.49373831248866L155.73964285714285,174.63983848198214L156.87642857142856,158.06740610820918L158.01321428571427,143.40481222998574L159.15,164.06960884644604L160.2867857142857,145.97533121608873L161.42357142857142,153.8841652617609L162.56035714285716,149.13552935731647L163.69714285714286,151.81015677613726L164.83392857142857,185.1788409902806L165.97071428571428,169.6214560459483L167.1075,175.23567509190448L168.24428571428572,162.96514517592394L169.38107142857143,159.3046724927304L170.51785714285714,153.6653884007105L171.65464285714287,150.60358906423332L172.79142857142855,143.030429136973L173.9282142857143,162.07505112493251L175.065,156.43991151545984L176.2017857142857,164.73945840572352L177.33857142857144,159.70400457515365L178.47535714285715,139.1787636670417L179.61214285714286,134.60615627267023L180.74892857142856,147.40597373218105L181.88571428571427,134.69210148949412L183.0225,141.24299676959046L184.15928571428572,150.9423858075277L185.29607142857142,151.74437170859085L186.43285714285716,147.54872357015728L187.56964285714287,143.76255263929667L188.70642857142857,140.74592896760188L189.84321428571428,131.18890263152684L190.98,134.60701043055394L192.11678571428573,130.11664759917144L193.25357142857143,120.11073774606439L194.39035714285714,118.46191493254463L195.52714285714285,114.44388616318628L196.66392857142856,119.91879447234112L197.8007142857143,121.46206102876704L198.9375,126.33850739157262L200.07428571428574,128.02065949320283L201.21107142857142,141.0434113584632L202.34785714285715,139.21955965734278L203.48464285714286,126.75109956442327L204.62142857142854,126.77734469016727L205.75821428571427,120.29199336891656L206.895,123.1909752644977L208.03178571428575,114.26771964214396L209.16857142857143,110.04889574187177L210.30535714285713,121.19393813204601L211.44214285714287,117.82800289995464L212.57892857142855,119.9729265199257L213.71571428571428,123.64291932120346L214.85250000000002,119.35465965047575L215.9892857142857,110.19964384353852L217.12607142857144,120.68101436506805L218.26285714285714,128.6429713912448L219.39964285714285,115.72184832237889L220.53642857142856,128.92113351308603L221.6732142857143,114.42116006178554L222.81000000000003,114.98083586958285L223.9467857142857,124.13983037981146L225.08357142857145,117.72716527305755L226.22035714285715,115.85073073712476L227.35714285714283,116.23082583679673L228.49392857142857,125.81544099428956L229.6307142857143,118.78919187981512L230.76749999999998,128.36743706737147L231.90428571428572,125.0790050904215L233.04107142857143,119.88125610179316L234.17785714285714,123.92832683730595L235.31464285714284,112.94847980133835L236.45142857142858,126.00621693236516L237.58821428571432,128.53257478904737L238.725,124.12540170289006L239.86178571428573,132.78304477856906L240.99857142857144,123.26680175647599L242.13535714285712,117.0609825673751L243.27214285714285,113.17134152567496L244.4089285714286,112.82357534082092L245.54571428571427,102.05493983998412L246.6825,97.5702516567784L247.8192857142857,99.63074028612772L248.95607142857142,100.5577624782926L250.09285714285713,100.84424759631185L251.22964285714286,95.25367968864441L252.36642857142854,112.53347171615536L253.50321428571428,103.21905328817144L254.64000000000001,108.15973324201758L255.77678571428572,98.87144710290556L256.9135714285714,97.83990450390905L258.05035714285714,104.5542635979752L259.1871428571429,91.31162206006707L260.32392857142855,98.22507247711985L261.4607142857143,87.25712728759765L262.5975,92.19374455537678L263.7342857142857,87.87815979861432L264.87107142857144,93.57316890918355L266.0078571428572,91.68545412777024L267.14464285714286,94.54975462635394L268.2814285714286,102.44845215830435L269.41821428571427,90.55571299521449L270.555,98.87263903860361L271.6917857142857,102.06559272078795L272.8285714285714,87.87575987998105L273.96535714285716,96.83175209043952L275.10214285714284,93.70464985635653L276.2389285714286,92.57401990258899L277.3757142857143,86.6636206094089L278.5125,91.48832143446015L279.6492857142857,85.8444654321587L280.78607142857146,90.80167017936805L281.92285714285714,98.89972637860632L283.0596428571429,89.74286270338621L284.19642857142856,92.81235273509799L285.3332142857143,91.50400054002262L286.46999999999997,102.16723038400431L287.6067857142857,92.97108750054417L288.74357142857144,102.31146649589209L289.8803571428571,104.03069779036167L291.01714285714286,97.31473863340557L292.1539285714286,89.57893945157252L293.2907142857143,87.99978832921283L294.4275,91.80887601050335L295.56428571428575,91.54813090832022L296.7010714285714,89.75053105290635L297.83785714285716,91.35794057072388L298.97464285714284,84.4034127877735L300.1114285714286,82.84270754162117L301.24821428571425,86.3778743283574L302.385,85.92218569219534L303.5217857142857,85.19711283955849L304.6585714285714,79.47074963800083L305.79535714285714,78.06299611603004L306.9321428571429,77.76938204384919L308.06892857142856,74.33463439407348L309.2057142857143,78.81307326065075L310.34250000000003,78.53919202894701L311.4792857142857,82.41391952692493L312.61607142857144,74.02261027754702L313.7528571428571,65.11333329821645L314.88964285714286,68.59250062844455L316.02642857142854,63.962837513466525L317.1632142857143,68.70446192740701L318.3,76.25141455095348L319.4367857142857,70.88965472675818L320.5735714285714,67.795639044226L321.71035714285716,73.69644590862333L322.84714285714284,70.09851028833498L323.9839285714286,63.962001487927125L325.1207142857143,62.50923781502428L326.2575,64.27261946927257L327.39428571428573,60.16213621507649L328.5310714285714,61.795616033349916L329.66785714285714,64.85426298326985L330.8046428571428,62.293986388373696L331.94142857142856,64.73687380387685L333.0782142857143,68.37455646753318L334.215,62.39972332691286L335.3517857142857,65.10485607188934L336.48857142857145,66.38247890096483L337.6253571428571,68.02888241932021L338.76214285714286,61.396233703888015L339.8989285714286,63.27609776591794L341.0357142857143,61.468237822895446L342.1725,64.7699326714419L343.30928571428575,63.4272223076199L344.44607142857143,61.161918832365984L345.5828571428571,60.818209857782904L346.71964285714284,60.95318695904331L347.8564285714286,71.5144154746381L348.99321428571426,64.57408422514453L350.13,63.234299511851304L351.26678571428573,59.04200676024675L352.4035714285714,57.74484202154201L353.54035714285715,53.63629265659705L354.6771428571429,56.97329534453377L355.81392857142856,58.27985428232472L356.9507142857143,56.427861472229665L358.08750000000003,54.64695179378663L359.2242857142857,57.98737408058139L360.3610714285714,59.034705064694435L361.49785714285713,61.23172710684423L362.63464285714286,60.39985700154091L363.77142857142854,54.50748876544367L364.9082142857143,49.93337026052495L366.045,55.54697761800014L367.1817857142857,54.0297209829929L368.31857142857143,51.39723339423102L369.45535714285717,50.711938790088595L370.59214285714285,60.52593448626578L371.7289285714286,57.03904488427645L372.8657142857143,52.44737772738432L374.0025,54.061560191012575L375.13928571428573,56.50407034770939L376.2760714285714,54.59142234312185L377.41285714285715,55.255083890756225L378.5496428571428,59.86154106505194L379.68642857142856,57.0751257900186L380.8232142857143,58.263929501711516L381.96,54.68779737771416L383.0967857142857,62.264698555098676L384.23357142857145,65.02928357969381L385.37035714285713,60.20914280163174L386.50714285714287,52.970522852450415L387.6439285714286,51.76193235453496L388.7807142857143,52.437647787820595L389.9175,54.54587833813946L391.0542857142857,51.26039024175128L392.19107142857143,51.365113244008114L393.3278571428571,52.94885690725033L394.46464285714285,52.58296636925286L395.6014285714286,49.61823943189029L396.73821428571426,60.40484397158531L397.875,57.85811918241552L399.01178571428574,58.78051479229731L400.1485714285715,52.50053680575991L401.2853571428572,53.30506205231893L402.42214285714283,48.90260075555835L403.55892857142857,45.13935462334041L404.6957142857143,49.51496078706515L405.8325,57.15701220359966L406.9692857142857,55.88426904269767L408.10607142857145,55.895672079949634L409.2428571428571,55.13260413076506L410.3796428571428,51.03809907861347L411.51642857142855,50.71125339863295L412.6532142857143,45.46719022408138L413.79,49.48777177595946L414.92678571428576,45.08378521555204L416.0635714285715,40.631224186908355L417.2003571428571,45.76548429496688L418.33714285714285,43.812613745328576L419.4739285714286,39.34382176956393L420.61071428571427,52.02239121182026L421.7475,45.948833153214025L422.88428571428574,48.51140484119804L424.02107142857136,51.645997841682856L425.1578571428571,56.48745906075635L426.29464285714283,50.766434285660296L427.43142857142857,43.474857888553686L428.5682142857143,49.56655072911656L429.70500000000004,48.312296636057624L430.8417857142858,48.59959890833204L431.9785714285714,47.48480837834717L433.11535714285714,46.53309520980332L434.25214285714287,48.21523544211857L435.3889285714286,47.903903774079936L436.5257142857143,45.259812234053186L437.6625,51.40457421255451L438.7992857142857,42.928036243543715L439.9360714285714,44.51636604259539L441.0728571428571,42.32891945740511L442.20964285714285,42.426901779735715L443.3464285714286,40.30160245657606L444.4832142857143,42.10620266095799L445.62000000000006,37.241263631513846L446.7567857142857,33.966156588161084L447.8935714285714,35.66927247832098L449.03035714285716,33.88313359110464L450.1671428571429,34.84968125661271L451.30392857142857,34.4310832408035L452.4407142857143,31.85609364694642L453.5775,38.08225072546878L454.71428571428567,42.11177066025431L455.8510714285714,42.21384844876411L456.98785714285714,40.66959663190954L458.1246428571429,38.63972872086856L459.2614285714286,35.716808373510844L460.39821428571435,38.77639022843937L461.53499999999997,42.84517493062606L462.6717857142857,35.45721787424378L463.80857142857144,32.987809805985535L464.9453571428572,31.6899300380079L466.08214285714286,37.68474231817203L467.2189285714286,38.387159512591154L468.35571428571427,39.947291805101145L469.49249999999995,40.93665415944747L470.6292857142857,41.21218096667275L471.7660714285714,40.70480781374107L472.90285714285716,38.080443053285705L474.0396428571429,41.81700640447616L475.17642857142863,39.99069430417859L476.31321428571425,35.96602449480997L477.45,36.933990856550736L478.5867857142857,37.79406585791031L479.72357142857146,36.648913761975564L480.86035714285714,33.9292495572937L481.9971428571429,36.46580139764325L483.13392857142856,31.045527511462467L484.27071428571423,27.53266273028032L485.40749999999997,35.80458365874097L486.5442857142857,34.7128923889602L487.68107142857144,29.660729394602924L488.8178571428572,30.45886627264605L489.9546428571429,32.55200652317325L491.09142857142854,32.30109562497597L492.2282142857143,34.03869704938194L493.365,34.61148039313349L494.50178571428575,30.686422554245553L495.6385714285714,27.56000940733105L496.77535714285716,31.999922252372755L497.91214285714284,32.291508050728225L499.0489285714286,30.997802953877738L500.18571428571425,27.01136851569845L501.3225,29.762418134606833L502.4592857142857,29.21671865957046L503.59607142857146,26.026543998951865L504.7328571428571,28.21438635179703L505.8696428571428,31.11478464098502L507.00642857142856,36.935054143612206L508.1432142857143,33.03460995684213L509.28000000000003,34.51609925756935L510.41678571428577,34.921135006104805L511.55357142857144,34.0498586163078L512.6903571428571,35.663852296634104L513.8271428571428,39.323747771907904L514.9639285714286,38.661628383960135L516.1007142857143,34.41338224550236L517.2375000000001,32.22104689042669L518.3742857142857,31.321359540744425L519.5110714285714,33.96743067731455L520.6478571428571,30.940976961629588L521.7846428571428,28.600780096088272L522.9214285714286,29.569264957002986L524.0582142857143,31.750510843498716L525.195,30.855768481350253L526.3317857142857,26.003746096240377L527.4685714285714,28.02630123133889L528.6053571428571,30.38772293574698L529.7421428571429,28.661839005951776L530.8789285714286,29.943164887612966L532.0157142857144,28.871538243020268L533.1525,32.39236783982693L534.2892857142857,28.323330590031333L535.4260714285714,28.266103681907225L536.5628571428572,27.94584658017675L537.6996428571429,29.051867479433042L538.8364285714285,26.706556029512683L539.9732142857143,24.98375695108797L541.11,22.225467532908738L542.2467857142857,21.48905662102686L543.3835714285714,22.422446565535665L544.5203571428572,21.031468376250416L545.6571428571428,23.174932611235533L546.7939285714286,23.179814176743662L547.9307142857143,25.76778184235127L549.0675,26.55786406170762L550.2042857142857,28.491874050270155L551.3410714285715,26.48594402907048L552.4778571428571,23.821919751380506L553.6146428571428,22.201852825181618L554.7514285714286,28.33517334238269L555.8882142857143,25.34219213330715L557.025,22.17438290506294L558.1617857142857,22.755241542270994L559.2985714285714,20.80647487432185L560.4353571428571,18.233648804477355L561.5721428571429,15.990533509958198L562.7089285714286,21.84453391436125L563.8457142857143,22.06790398853974L564.9825,19.653975487135824L566.1192857142858,18.302056955632622L567.2560714285714,21.17125821692281L568.3928571428571,23.509644041953948L569.5296428571429,23.5492264784765L570.6664285714286,22.040120287025843L571.8032142857143,20.742196332151764L572.9399999999999,20.227594078285108L574.0767857142857,21.53063196343595L575.2135714285714,24.09867915988417L576.3503571428572,27.087764092401358L577.4871428571429,23.152228151394127L578.6239285714286,22.964645621993498L579.7607142857142,20.248955109634437L580.8975,19.713106488388576L582.0342857142857,22.47318917390652L583.1710714285714,25.411700599690846L584.3078571428572,21.734115569611618L585.4446428571429,20.377096563377904L586.5814285714285,25.3715795431022L587.7182142857142,21.09315807773288L588.855,20.099826250438355L589.9917857142857,17.11238014684045L591.1285714285715,19.86893258271226L592.2653571428572,19.10562547979157L593.4021428571428,21.084152029239874L594.5389285714285,22.69274543695252L595.6757142857143,25.585150047497223L596.8125,25.34623689765425L597.9492857142857,24.299723701071287L599.0860714285715,23.4729782757708L600.2228571428572,24.115913645465298L601.3596428571428,22.64463908744409L602.4964285714285,20.245537326287547L603.6332142857143,19.22505116739245L604.77,22.632946918824473L605.9067857142858,23.79484705375569L607.0435714285715,25.98636058411796L608.1803571428571,21.618439787544276L609.3171428571428,20.023903690051327L610.4539285714286,22.118635690204712L611.5907142857143,18.01223927631645L612.7275,14.8360663413917L613.8642857142858,17.085602809509282L615.0010714285714,16.32746027543999L616.1378571428571,20.610527984374414L617.2746428571428,18.04951714194368L618.4114285714286,18.34920575172856L619.5482142857143,16.861796698125488L620.6850000000001,17.81331912869524L621.8217857142857,21.442133785311512L622.9585714285714,21.18404107540482L624.0953571428571,18.554575786640612L625.2321428571429,19.98145282076547L626.3689285714286,19.58328585159836L627.5057142857142,18.990830159806535L628.6425,15.6040950254922L629.7792857142857,15.476065786185359L630.9160714285714,14.869343561788014L632.0528571428571,14.692117671703784L633.1896428571429,14.149885940112256L634.3264285714286,14.008243948616439L635.4632142857143,14.952090407179867L636.6,15.853154281492095L637.7367857142857,16.930753148788995L638.8735714285714,17.29099770036106L640.0103571428572,17.486592178480464L641.1471428571429,16.260539209273702L642.2839285714285,22.045606039432244L643.4207142857143,24.371288015793994L644.5575,22.116837938512106L645.6942857142857,19.675686905747L646.8310714285714,18.30857661455491L647.9678571428572,18.276044971286183L649.1046428571428,16.710854686948664L650.2414285714286,18.315328311862743L651.3782142857143,17.700186045996873L652.515,19.0768482770074L653.6517857142857,17.17759520709518L654.7885714285715,19.870051988669502L655.9253571428571,22.515678549946585L657.0621428571428,20.697091857256055L658.1989285714286,20.39170542705233L659.3357142857143,16.109447287371324L660.4725,14.91315135427783L661.6092857142856,17.106903884514736L662.7460714285714,17.838694100095836L663.8828571428571,16.84679735642004L665.0196428571429,16.528037871904587L666.1564285714286,19.02084680283525L667.2932142857143,17.23829270055802L668.43,15.694822027497594L669.5667857142857,17.092297120015814L670.7035714285714,16.820650314289765L671.8403571428572,17.728976420667607L672.9771428571429,16.36216381953426L674.1139285714286,13.556334919960989L675.2507142857143,12.591957358221464L676.3874999999999,12.167977649184365L677.5242857142857,12.499130499231569L678.6610714285714,10.997438028686986L679.7978571428572,12.681064456594925L680.9346428571429,14.545775410194153L682.0714285714286,11.491162574053362L683.2082142857142,12.805882754864058L684.345,13.08622473091475L685.4817857142857,10.891077770119352L686.6185714285715,9.16770747532621L687.7553571428572,13.281051035958853L688.8921428571429,13.461607672979426L690.0289285714285,12.772764036498756L691.1657142857142,11.288172691342766L692.3025,11.851018373697286L693.4392857142857,12.214512982953579L694.5760714285715,11.895715125121399L695.7128571428572,11.783091982011285L696.8496428571428,11.59946071106367L697.9864285714285,10.248694224233134L699.1232142857143,8.653695378128305L700.26,6.836419348721449L701.3967857142858,8.906560322284065L702.5335714285715,10.513807975808334L703.6703571428571,8.850515763934084L704.8071428571428,9.799719789242943L705.9439285714285,9.400650729357835L707.0807142857143,8.025358627447133L708.2175,7.499244623496054L709.3542857142858,6.981703888842503L710.4910714285714,6.148532891973048L711.6278571428571,7.59070098122686L712.7646428571428,8.89467774358394L713.9014285714286,7.026795417431288L715.0382142857143,6.705743083214941L716.1750000000001,8.72018547657217L717.3117857142857,9.972744350094501L718.4485714285714,9.500058048323012L719.5853571428571,8.733315904154722L720.7221428571428,7.443927027327788L721.8589285714286,8.634931368933337L722.9957142857143,8.437138422387136L724.1325,9.050816386851295L725.2692857142857,7.71390098254426L726.4060714285714,10.040274034732704L727.5428571428571,9.597062839022328L728.6796428571429,9.785064577150024L729.8164285714286,10.344721143586355L730.9532142857144,13.762250898365835L732.09,11.456476382508015L733.2267857142857,11.416540496441257L734.3635714285714,11.247974756124904L735.5003571428572,13.579287775631428L736.6371428571429,15.592407377993993L737.7739285714285,14.472052948365445L738.9107142857143,15.426010243140752" style="fill: none;" fill="none"></path></g></g></g></g><g opacity="0.2"><g><g><g><path stroke="rgb(255, 112, 67)" stroke-width="2px" d="M57.97607142857143,54.760595619678554L59.112857142857145,318.5515559304845L60.24964285714286,276.57437226013707L61.38642857142857,73.05365680835467L62.52321428571428,687.2454545454545L63.660000000000004,325.26121687563983L64.79678571428572,129.33402147726582L65.93357142857143,307.0671223461628L67.07035714285715,600.3211247977886L68.20714285714286,202.29403681917626L69.34392857142858,633.1316394285045L70.48071428571428,138.03649244037547L71.61749999999999,95.83102185292682L72.75428571428571,514.014169224013L75.02785714285714,589.8624974309043L76.16464285714285,316.9852938521992L77.30142857142857,35.701075341484795L78.43821428571428,10.82275790301236L79.575,516.1026176556945L80.71178571428571,679.0639608865688L81.84857142857143,264.3251590701667L82.98535714285714,43.808476495742866L84.12214285714286,434.4981657109478L85.25892857142857,624.531038378721L86.39571428571428,87.22731273391031L87.5325,425.97859463745897L88.66928571428572,665.3412162975832L89.80607142857143,133.77678882967345L90.94285714285714,146.89216510274196L92.07964285714286,643.0851056976752L93.21642857142858,362.9273702697321L94.35321428571429,5.79954454031855L95.49,49.64890213121072L96.62678571428572,31.63053896264597L97.76357142857142,241.04878250143747L98.90035714285715,163.75770596590914L100.03714285714287,230.95954941890457L101.17392857142858,573.1572755919261L105.72107142857143,495.6342664304105L106.85785714285714,55.99776078570977L107.99464285714285,89.75219143412335L109.13142857142857,436.18530966476965L110.26821428571428,8.08524015979333L111.40500000000002,647.974285494841L112.54178571428572,126.87607635368005L113.67857142857142,659.1946202407845L115.95214285714286,644.2926136363636L117.08892857142857,81.7541205834259L118.22571428571429,329.76698535464027L119.3625,338.33620360981337L120.49928571428572,389.90659913908354L121.63607142857143,230.0168264491992L122.77285714285713,262.5432266853073L123.90964285714286,165.44796310934154L125.04642857142856,292.2768090995876L126.18321428571427,277.7032721611587L127.32000000000001,211.67161933454602L128.4567857142857,279.98888585459105L129.59357142857144,100.64262024814434L130.73035714285714,220.81169825304642L131.86714285714285,155.0982052120296L133.0039285714286,191.7894387017597L134.1407142857143,258.42701653783973L135.2775,127.47294853546404L136.4142857142857,357.15117465149274L137.55107142857142,131.42542948722843L138.68785714285715,169.39147315946497L139.82464285714286,116.70204981728034L140.96142857142857,237.16704468727116L142.09821428571428,98.17791622606194L143.23499999999999,186.95182878808544L144.37178571428572,185.53012521158567L145.50857142857143,181.00293307250197L146.64535714285714,186.93077379519292L147.78214285714287,168.24680249528456L148.91892857142858,183.61518589691684L150.0557142857143,204.24162366173488L151.1925,135.78639368631625L152.3292857142857,188.39548854394394L153.46607142857144,185.74202692021026L154.60285714285715,171.0984432155436L155.73964285714285,163.9037391364575L156.87642857142856,95.72349392229864L158.01321428571427,88.245530551672L159.15,241.80860558152202L160.2867857142857,77.90638207684867L161.42357142857142,183.63644570491533L162.56035714285716,131.27161334265367L163.69714285714286,161.8718503962864L164.83392857142857,310.70865300406115L165.97071428571428,111.09605555209254L167.1075,196.35583245212385L168.24428571428572,116.80458025932319L169.38107142857143,145.53432287628004L170.51785714285714,132.45093872276223L171.65464285714287,139.08539156100971L172.79142857142855,114.54092274524953L173.9282142857143,233.71910526752475L175.065,135.2410529851914L176.2017857142857,195.9615633731539L177.33857142857144,140.7611068319191L178.47535714285715,61.96476215665996L179.61214285714286,117.40444274165418L180.74892857142856,195.55766798420387L181.88571428571427,86.86372495781296L183.0225,165.88684091838925L184.15928571428572,187.43056361675266L185.29607142857142,154.76136628877035L186.43285714285716,131.76509485894988L187.56964285714287,129.519338185137L188.70642857142857,129.3976780121977L189.84321428571428,95.23627974824473L190.98,147.46560643640436L192.11678571428573,113.2243302811276L193.25357142857143,82.46945782249628L194.39035714285714,112.25920053883033L195.52714285714285,99.32844460227273L196.66392857142856,140.51487811153586L197.8007142857143,127.26768283627254L198.9375,144.68323418498045L200.07428571428574,134.34875549457294L201.21107142857142,190.03376361348415L202.34785714285715,132.35840325789022L203.48464285714286,79.84594016725373L204.62142857142854,126.87607635368005L205.75821428571427,95.89471935087988L206.895,134.0966690621593L208.03178571428575,80.69928182471887L209.16857142857143,94.17808202179998L210.30535714285713,163.1205261712725L211.44214285714287,105.16567512208769L212.57892857142855,128.04192489981656L213.71571428571428,137.44908271648669L214.85250000000002,103.22263517488136L215.9892857142857,75.75934628410778L217.12607142857144,160.1109320412983L218.26285714285714,158.59509544210005L219.39964285714285,67.11381392045456L220.53642857142856,178.57558732574637L221.6732142857143,59.87364088784568L222.81000000000003,117.08628295605837L223.9467857142857,158.59509544210005L225.08357142857145,93.6033298714595L226.22035714285715,108.79176272099676L227.35714285714283,117.66070740222938L228.49392857142857,161.8718503962864L229.6307142857143,92.3571118777449L230.76749999999998,164.39988324913116L231.90428571428572,112.70823717713358L233.04107142857143,100.3278194302863L234.17785714285714,139.15302150899717L235.31464285714284,71.64334095174621L236.45142857142858,175.12818042527547L237.58821428571432,138.03649244037547L238.725,107.54603628353641L239.86178571428573,165.3522734918378L240.99857142857144,87.46760181622074L242.13535714285712,93.71528180837635L243.27214285714285,98.53888236880306L244.4089285714286,111.51531207398938L245.54571428571427,61.544358670169686L246.6825,80.69928182471887L247.8192857142857,107.38210227272731L248.95607142857142,104.04513167738918L250.09285714285713,101.92197732600306L251.22964285714286,74.22249565503819L252.36642857142854,177.53840362917296L253.50321428571428,68.17909824956553L254.64000000000001,126.7461006874388L255.77678571428572,63.929799246246205L256.9135714285714,93.95933948863637L258.05035714285714,129.81304304708138L259.1871428571429,41.49406579841269L260.32392857142855,124.23281452222307L261.4607142857143,45.99676205082375L262.5975,110.76482856273657L263.7342857142857,71.64334095174621L264.87107142857144,114.99725080132487L266.0078571428572,84.58405090245338L267.14464285714286,105.32498031150215L268.2814285714286,132.16260001659398L269.41821428571427,45.81636090549563L270.555,130.16012272563853L271.6917857142857,114.0771803823385L272.8285714285714,34.49496014551687L273.96535714285716,130.5233418345452L275.10214285714284,81.9407890709964L276.2389285714286,88.32069769555875L277.3757142857143,64.42926136363639L278.5125,109.63838644298647L279.6492857142857,64.61281666159636L280.78607142857146,109.45020232363186L281.92285714285714,129.36384255669338L283.0596428571429,55.29561363946311L284.19642857142856,104.35948190201418L285.3332142857143,86.58210418712014L286.46999999999997,142.28128551136365L287.6067857142857,58.37607379609892L288.74357142857144,137.44908271648669L289.8803571428571,110.49828218384226L291.01714285714286,72.04993990009484L292.1539285714286,60.47759967229587L293.2907142857143,82.05917220224035L294.4275,106.13830109726302L295.56428571428575,90.56723266677426L296.7010714285714,82.98813159682533L297.83785714285716,97.40486209013244L298.97464285714284,58.24114160429349L300.1114285714286,76.97148304419085L301.24821428571425,99.67683509750805L302.385,84.20792844187133L303.5217857142857,82.46945782249628L304.6585714285714,57.92871664166455L305.79535714285714,72.76716143814002L306.9321428571429,76.66483386754993L308.06892857142856,61.41344085444109L309.2057142857143,95.66053375872701L310.34250000000003,77.50887691920457L311.4792857142857,96.99027535265145L312.61607142857144,42.45530405369675L313.7528571428571,31.59748180454426L314.88964285714286,81.68079677549281L316.02642857142854,46.54648579521614L317.1632142857143,86.54200138937347L318.3,104.64233156334274L319.4367857142857,50.71922491192822L320.5735714285714,56.15624671470039L321.71035714285716,95.89471935087988L322.84714285714284,56.56341914534573L323.9839285714286,40.877039810202405L325.1207142857143,57.04407923600894L326.2575,70.90629331144424L327.39428571428573,44.6988896873865L328.5310714285714,67.94061154018749L329.66785714285714,76.36060150915932L330.8046428571428,52.66246967424047L331.94142857142856,73.92678360505539L333.0782142857143,82.05917220224035L334.215,39.922970083626865L335.3517857142857,75.2813078268008L336.48857142857145,71.18877430558211L337.6253571428571,74.22249565503819L338.76214285714286,36.444840917262184L339.8989285714286,70.34796733260157L341.0357142857143,54.6672408943827L342.1725,77.1905942445452L343.30928571428575,58.37607379609892L344.44607142857143,52.64006290164866L345.5828571428571,59.52520942958921L346.71964285714284,61.46095795902346L347.8564285714286,111.24475131901835L348.99321428571426,38.465219048478446L350.13,58.19415701898669L351.26678571428573,43.27100069468679L352.4035714285714,52.86503181403339L353.54035714285715,38.180321236090265L354.6771428571429,69.5267816467719L355.81392857142856,63.19500457210978L356.9507142857143,49.46084090091972L358.08750000000003,47.94733919392934L359.2242857142857,70.55372458804743L360.3610714285714,62.9746644811197L361.49785714285713,69.49671478921721L362.63464285714286,57.27044089111422L363.77142857142854,32.34096063917332L364.9082142857143,32.72597207535398L366.045,76.66483386754993L367.1817857142857,48.32194602272733L368.31857142857143,41.49406579841269L369.45535714285717,48.13392575545748L370.59214285714285,97.4452516290275L371.7289285714286,43.921698286316655L372.8657142857143,35.17396318479018L374.0025,60.13396088751887L375.13928571428573,65.69256093718792L376.2760714285714,47.396222706816445L377.41285714285715,57.75171542709529L378.5496428571428,77.1905942445452L379.68642857142856,46.59289689822634L380.8232142857143,62.73609584569937L381.96,41.23472891124817L383.0967857142857,90.76827917478306L384.23357142857145,75.42938914840875L385.37035714285713,42.076232255588934L386.50714285714287,25.73952399600637L387.6439285714286,47.215330005233966L388.7807142857143,54.97962489399049L389.9175,62.4768408845772L391.0542857142857,38.90069692676724L392.19107142857143,51.75907120487909L393.3278571428571,58.90674973563716L394.46464285714285,51.20652101202444L395.6014285714286,38.465219048478446L396.73821428571426,100.98302295424725L397.875,48.27758307077676L399.01178571428574,62.25047922947198L400.1485714285715,28.875857713547646L401.2853571428572,56.33160940842197L402.42214285714283,32.34096063917332L403.55892857142857,30.98238107832998L404.6957142857143,65.97557445060124L405.8325,85.90568181818185L406.9692857142857,51.09633048501888L408.10607142857145,55.9385692200878L409.2428571428571,52.2620151790706L410.3796428571428,35.63496102528143L411.51642857142855,49.48169107870626L412.6532142857143,25.73952399600637L413.79,64.61281666159636L414.92678571428576,28.516407202590585L416.0635714285715,23.88111365058205L417.2003571428571,65.08008184432987L418.33714285714285,36.466100725260674L419.4739285714286,22.532651955972995L420.61071428571427,99.71796197078447L421.7475,23.100686170838117L422.88428571428574,58.151555476947294L424.02107142857136,63.43803817684005L425.1578571428571,74.70057507536632L426.29464285714283,29.244483941251588L427.43142857142857,16.04464191848581L428.5682142857143,72.48291903409097L429.70500000000004,43.59391219074081L430.8417857142858,49.68040269450711L431.9785714285714,43.2910725750707L433.11535714285714,42.95284090909098L434.25214285714287,54.54328679225665L435.3889285714286,46.732703689553546L436.5257142857143,35.31299167871481L437.6625,74.52058356025003L438.7992857142857,11.040107693455468L439.9360714285714,50.49151147712365L441.0728571428571,34.09995373216543L442.20964285714285,42.79550194469368L443.3464285714286,32.30642881230875L444.4832142857143,48.89493676315658L445.62000000000006,18.939826330271615L446.7567857142857,21.64551580602472L447.8935714285714,42.076232255588934L449.03035714285716,27.16384920586239L450.1671428571429,38.48574152209545L451.30392857142857,32.85635737180712L452.4407142857143,22.169228031960415L453.5775,61.50446068752899L454.71428571428567,57.27044089111422L455.8510714285714,42.597855367443856L456.98785714285714,34.86026836850431L458.1246428571429,31.003558960286057L459.2614285714286,24.72106040011755L460.39821428571435,50.28624577793215L461.53499999999997,58.151555476947294L462.6717857142857,7.664427043091166L463.80857142857144,23.698131834918797L464.9453571428572,26.807429958473563L466.08214285714286,60.23665518164637L467.2189285714286,41.02958610112023L468.35571428571427,45.81636090549563L469.49249999999995,44.65854111151265L470.6292857142857,42.2486865748059L471.7660714285714,38.79611833366488L472.90285714285716,28.207832763953604L474.0396428571429,55.873601868477806L475.17642857142863,33.120282117345084L476.31321428571425,20.82559997385198L477.45,40.57538812214682L478.5867857142857,41.02958610112023L479.72357142857146,32.34096063917332L480.86035714285714,23.698131834918797L481.9971428571429,46.00806784467267L483.13392857142856,10.654973368211188L484.27071428571423,14.31759998202324L485.40749999999997,66.92276238961654L486.5442857142857,30.606053802641952L487.68107142857144,10.654973368211188L488.8178571428572,33.46138119480827L489.9546428571429,40.426200798966704L491.09142857142854,31.357192722233833L492.2282142857143,40.57538812214682L493.365,36.76623678153214L494.50178571428575,15.920728779380966L495.6385714285714,15.79874090227213L496.77535714285716,48.70245152657685L497.91214285714284,33.38842605406586L499.0489285714286,26.131007589535272L500.18571428571425,12.01478181969037L501.3225,40.11160479621458L502.4592857142857,27.16384920586239L503.59607142857146,14.025410751862921L504.7328571428571,36.444840917262184L505.8696428571428,42.02580677650195L507.00642857142856,58.83035370111469L508.1432142857143,18.361510397087443L509.28000000000003,40.08932091268633L510.41678571428577,36.444840917262184L511.55357142857144,30.77219981659539L512.6903571428571,41.7355428083377L513.8271428571428,53.09192598841412L514.9639285714286,36.170798305489825L516.1007142857143,18.431884867494773L517.2375000000001,23.973690078475272L518.3742857142857,27.936821415749478L519.5110714285714,43.921698286316655L520.6478571428571,19.55574631690979L521.7846428571428,19.79718236381359L522.9214285714286,33.21261276711118L524.0582142857143,39.95615013079214L525.195,27.48983292850579L526.3317857142857,7.750899980826773L527.4685714285714,35.63496102528143L528.6053571428571,39.271166490424775L529.7421428571429,22.169228031960415L530.8789285714286,34.763390823385976L532.0157142857144,24.840180865742923L533.1525,45.637393465909156L534.2892857142857,13.01599998365748L535.4260714285714,28.0508215037259L536.5628571428572,26.741069864143014L537.6996428571429,33.21261276711118L538.8364285714285,17.883717717907643L539.9732142857143,18.50275089415635L541.11,11.849045435948767L542.2467857142857,18.71874890490011L543.3835714285714,25.933770642497336L544.5203571428572,15.79874090227213L545.6571428571428,31.238440923799203L546.7939285714286,23.198178161274313L547.9307142857143,35.50346972725612L549.0675,29.53007812499999L550.2042857142857,35.76743543581529L551.3410714285715,18.939826330271615L552.4778571428571,13.800114135308661L553.6146428571428,16.10731534090911L554.7514285714286,51.408141002329955L555.8882142857143,14.082881870594917L557.025,10.257386284524728L558.1617857142857,24.940376415577816L559.2985714285714,13.475400266322197L560.4353571428571,8.554922160777153L561.5721428571429,7.552147402004778L562.7089285714286,43.86672591187744L563.8457142857143,22.90820093425839L564.9825,10.573006362806666L566.1192857142858,13.216268194263648L567.2560714285714,31.964920104633677L568.3928571428571,32.30642881230875L569.5296428571429,23.698131834918797L570.6664285714286,16.363006519187593L571.8032142857143,15.859530025720574L572.9399999999999,18.29170940897683L574.0767857142857,26.43253638852724L575.2135714285714,33.75942813699896L576.3503571428572,38.332416933774994L577.4871428571429,8.34711675427178L578.6239285714286,22.258978011391378L579.7607142857142,10.032786039330745L580.8975,17.697295008464266L582.0342857142857,32.85635737180712L583.1710714285714,36.466100725260674L584.3078571428572,7.899390932646668L585.4446428571429,15.272120301831876L586.5814285714285,44.1603488477794L587.7182142857142,4.998143993724511L588.855,16.363006519187593L589.9917857142857,5.873892423781456L591.1285714285715,30.238820317658508L592.2653571428572,16.234136854518567L593.4021428571428,28.527180477163995L594.5389285714285,28.744120637395156L595.6757142857143,36.466100725260674L596.8125,24.44746838157829L597.9492857142857,20.36284072344955L599.0860714285715,20.36284072344955L600.2228571428572,26.534575274315728L601.3596428571428,17.109844321554363L602.4964285714285,11.220344986698876L603.6332142857143,15.386079426787148L604.77,35.45312617421155L605.9067857142858,28.165804704210984L607.0435714285715,34.2306257697669L608.1803571428571,5.186737743290962L609.3171428571428,14.025410751862921L610.4539285714286,29.99881797649647L611.5907142857143,2.564367052641785L612.7275,2.887606252865396L613.8642857142858,25.54814476099881L615.0010714285714,13.475400266322197L616.1378571428571,36.72302079417494L617.2746428571428,8.415238258513511L618.4114285714286,19.47660575996747L619.5482142857143,11.266305496475923L620.6850000000001,21.39285589131441L621.8217857142857,35.09338892210616L622.9585714285714,20.213120880993927L624.0953571428571,8.662777795574868L625.2321428571429,25.34922833009199L626.3689285714286,18.085419634255516L627.5057142857142,16.762068271636963L628.6425,2.863519996404648L629.7792857142857,14.99443198117342L630.9160714285714,12.58691233667463L632.0528571428571,14.025410751862921L633.1896428571429,12.11006180698223L634.3264285714286,13.475400266322197L635.4632142857143,18.50275089415635L636.6,19.242870761047698L637.7367857142857,20.984577459096897L638.8735714285714,18.64620339436965L640.0103571428572,18.22239997712046L641.1471428571429,11.648244706067146L642.2839285714285,43.808476495742866L643.4207142857143,33.120282117345084L644.5575,13.635811457308876L645.6942857142857,10.492309211059023L646.8310714285714,13.165637900070749L647.9678571428572,18.153664027560865L649.1046428571428,10.82275790301236L650.2414285714286,24.351205281777823L651.3782142857143,15.386079426787148L652.515,24.25572047937999L653.6517857142857,10.032786039330745L654.7885714285715,29.99881797649647L655.9253571428571,32.46827370903708L657.0621428571428,13.855741918087006L658.1989285714286,19.242870761047698L659.3357142857143,0L660.4725,10.412799986926018L661.6092857142856,25.35959197445345L662.7460714285714,20.591619196805084L663.8828571428571,13.115376273068534L665.0196428571429,15.328895049203538L666.1564285714286,28.398556590622093L667.2932142857143,10.532493934848105L668.43,9.88843235265125L669.5667857142857,22.349465325203823L670.7035714285714,15.79874090227213L671.8403571428572,21.146012725613332L672.9771428571429,11.220344986698876L674.1139285714286,3.001073821566308L675.2507142857143,8.964060816439712L676.3874999999999,10.573006362806666L677.5242857142857,13.744895982742321L678.6610714285714,5.348213972828603L679.7978571428572,19.01470673301003L680.9346428571429,21.560640426115583L682.0714285714286,0L683.2082142857142,17.75173486362803L684.345,14.140844545581103L685.4817857142857,2.6331439652225868L686.6185714285715,2.6845525568181756L687.7553571428572,28.755057764053333L688.8921428571429,14.140844545581103L690.0289285714285,10.181399880214144L691.1657142857142,5.70328144051814L692.3025,13.968390226364136L693.4392857142857,13.581945084441827L694.5760714285715,10.696427945657206L695.7128571428572,11.359414443644596L696.8496428571428,10.908657358451308L697.9864285714285,5.167239345203711L699.1232142857143,2.6534616237336763L700.26,0L701.3967857142858,16.69423350854356L702.5335714285715,16.560120577161968L703.6703571428571,2.5933688716455094L704.8071428571428,13.370534932071507L705.9439285714285,7.899390932646668L707.0807142857143,2.85164072025907L708.2175,5.520053846727706L709.3542857142858,5.034764934669852L710.4910714285714,3.014222951368879L711.6278571428571,13.01599998365748L712.7646428571428,13.800114135308661L713.9014285714286,0L715.0382142857143,5.497974778305377L716.1750000000001,16.29832590872593L717.3117857142857,14.684751540964271L718.4485714285714,7.721857198801899L719.5853571428571,5.84890498085457L720.7221428571428,2.5933688716455094L721.8589285714286,13.115376273068534L722.9957142857143,7.693060194904149L724.1325,11.359414443644596L725.2692857142857,2.6845525568181756L726.4060714285714,18.791867897727286L727.5428571428571,7.9297445313497406L728.6796428571429,10.492309211059023L729.8164285714286,12.450095845894396L730.9532142857144,26.618672356822287L732.09,2.782372251423908L733.2267857142857,11.266305496475923L734.3635714285714,10.613846494934762L735.5003571428572,22.349465325203823L736.6371428571429,23.165571596405755L737.7739285714285,10.257386284524728L738.9107142857143,19.01470673301003" style="fill: none;" fill="none"></path></g></g></g></g></g></g><g transform="translate(58, 377)" clip-path="url(#clip_1)"><clipPath id="clip_1"><rect width="795" height="21"></rect></clipPath><g><g><line x1="0" y1="0" x2="0" y2="5" style="visibility: inherit;" fill="rgb(0, 0, 0)" stroke="rgb(204, 204, 204)" stroke-width="1px"></line><line x1="56.83928571428571" y1="0" x2="56.83928571428571" y2="5" style="visibility: inherit;" fill="rgb(0, 0, 0)" stroke="rgb(204, 204, 204)" stroke-width="1px"></line><line x1="113.67857142857142" y1="0" x2="113.67857142857142" y2="5" style="visibility: inherit;" fill="rgb(0, 0, 0)" stroke="rgb(204, 204, 204)" stroke-width="1px"></line><line x1="170.51785714285714" y1="0" x2="170.51785714285714" y2="5" style="visibility: inherit;" fill="rgb(0, 0, 0)" stroke="rgb(204, 204, 204)" stroke-width="1px"></line><line x1="227.35714285714283" y1="0" x2="227.35714285714283" y2="5" style="visibility: inherit;" fill="rgb(0, 0, 0)" stroke="rgb(204, 204, 204)" stroke-width="1px"></line><line x1="284.19642857142856" y1="0" x2="284.19642857142856" y2="5" style="visibility: inherit;" fill="rgb(0, 0, 0)" stroke="rgb(204, 204, 204)" stroke-width="1px"></line><line x1="341.0357142857143" y1="0" x2="341.0357142857143" y2="5" style="visibility: inherit;" fill="rgb(0, 0, 0)" stroke="rgb(204, 204, 204)" stroke-width="1px"></line><line x1="397.875" y1="0" x2="397.875" y2="5" style="visibility: inherit;" fill="rgb(0, 0, 0)" stroke="rgb(204, 204, 204)" stroke-width="1px"></line><line x1="454.71428571428567" y1="0" x2="454.71428571428567" y2="5" style="visibility: inherit;" fill="rgb(0, 0, 0)" stroke="rgb(204, 204, 204)" stroke-width="1px"></line><line x1="511.55357142857144" y1="0" x2="511.55357142857144" y2="5" style="visibility: inherit;" fill="rgb(0, 0, 0)" stroke="rgb(204, 204, 204)" stroke-width="1px"></line><line x1="568.3928571428571" y1="0" x2="568.3928571428571" y2="5" style="visibility: inherit;" fill="rgb(0, 0, 0)" stroke="rgb(204, 204, 204)" stroke-width="1px"></line><line x1="625.2321428571429" y1="0" x2="625.2321428571429" y2="5" style="visibility: inherit;" fill="rgb(0, 0, 0)" stroke="rgb(204, 204, 204)" stroke-width="1px"></line><line x1="682.0714285714286" y1="0" x2="682.0714285714286" y2="5" style="visibility: inherit;" fill="rgb(0, 0, 0)" stroke="rgb(204, 204, 204)" stroke-width="1px"></line><line x1="738.9107142857143" y1="0" x2="738.9107142857143" y2="5" style="visibility: inherit;" fill="rgb(0, 0, 0)" stroke="rgb(204, 204, 204)" stroke-width="1px"></line><line x1="795.75" y1="0" x2="795.75" y2="5" style="visibility: inherit;" fill="rgb(0, 0, 0)" stroke="rgb(204, 204, 204)" stroke-width="1px"></line></g><g transform="translate(0, 8)"><text x="0" y="0" dx="0em" dy="0.95em" style="text-anchor: middle; visibility: hidden; font-family: &quot;Helvetica Neue&quot;, sans-serif; font-size: 12px; font-weight: 200;" fill="rgb(50, 49, 63)" stroke="none" stroke-width="1px">-500</text><text x="56.83928571428571" y="0" dx="0em" dy="0.95em" style="text-anchor: middle; visibility: inherit; font-family: &quot;Helvetica Neue&quot;, sans-serif; font-size: 12px; font-weight: 200;" fill="rgb(50, 49, 63)" stroke="none" stroke-width="1px">0</text><text x="113.67857142857142" y="0" dx="0em" dy="0.95em" style="text-anchor: middle; visibility: inherit; font-family: &quot;Helvetica Neue&quot;, sans-serif; font-size: 12px; font-weight: 200;" fill="rgb(50, 49, 63)" stroke="none" stroke-width="1px">500</text><text x="170.51785714285714" y="0" dx="0em" dy="0.95em" style="text-anchor: middle; visibility: inherit; font-family: &quot;Helvetica Neue&quot;, sans-serif; font-size: 12px; font-weight: 200;" fill="rgb(50, 49, 63)" stroke="none" stroke-width="1px">1k</text><text x="227.35714285714283" y="0" dx="0em" dy="0.95em" style="text-anchor: middle; visibility: inherit; font-family: &quot;Helvetica Neue&quot;, sans-serif; font-size: 12px; font-weight: 200;" fill="rgb(50, 49, 63)" stroke="none" stroke-width="1px">1.5k</text><text x="284.19642857142856" y="0" dx="0em" dy="0.95em" style="text-anchor: middle; visibility: inherit; font-family: &quot;Helvetica Neue&quot;, sans-serif; font-size: 12px; font-weight: 200;" fill="rgb(50, 49, 63)" stroke="none" stroke-width="1px">2k</text><text x="341.0357142857143" y="0" dx="0em" dy="0.95em" style="text-anchor: middle; visibility: inherit; font-family: &quot;Helvetica Neue&quot;, sans-serif; font-size: 12px; font-weight: 200;" fill="rgb(50, 49, 63)" stroke="none" stroke-width="1px">2.5k</text><text x="397.875" y="0" dx="0em" dy="0.95em" style="text-anchor: middle; visibility: inherit; font-family: &quot;Helvetica Neue&quot;, sans-serif; font-size: 12px; font-weight: 200;" fill="rgb(50, 49, 63)" stroke="none" stroke-width="1px">3k</text><text x="454.71428571428567" y="0" dx="0em" dy="0.95em" style="text-anchor: middle; visibility: inherit; font-family: &quot;Helvetica Neue&quot;, sans-serif; font-size: 12px; font-weight: 200;" fill="rgb(50, 49, 63)" stroke="none" stroke-width="1px">3.5k</text><text x="511.55357142857144" y="0" dx="0em" dy="0.95em" style="text-anchor: middle; visibility: inherit; font-family: &quot;Helvetica Neue&quot;, sans-serif; font-size: 12px; font-weight: 200;" fill="rgb(50, 49, 63)" stroke="none" stroke-width="1px">4k</text><text x="568.3928571428571" y="0" dx="0em" dy="0.95em" style="text-anchor: middle; visibility: inherit; font-family: &quot;Helvetica Neue&quot;, sans-serif; font-size: 12px; font-weight: 200;" fill="rgb(50, 49, 63)" stroke="none" stroke-width="1px">4.5k</text><text x="625.2321428571429" y="0" dx="0em" dy="0.95em" style="text-anchor: middle; visibility: inherit; font-family: &quot;Helvetica Neue&quot;, sans-serif; font-size: 12px; font-weight: 200;" fill="rgb(50, 49, 63)" stroke="none" stroke-width="1px">5k</text><text x="682.0714285714286" y="0" dx="0em" dy="0.95em" style="text-anchor: middle; visibility: inherit; font-family: &quot;Helvetica Neue&quot;, sans-serif; font-size: 12px; font-weight: 200;" fill="rgb(50, 49, 63)" stroke="none" stroke-width="1px">5.5k</text><text x="738.9107142857143" y="0" dx="0em" dy="0.95em" style="text-anchor: middle; visibility: inherit; font-family: &quot;Helvetica Neue&quot;, sans-serif; font-size: 12px; font-weight: 200;" fill="rgb(50, 49, 63)" stroke="none" stroke-width="1px">6k</text><text x="795.75" y="0" dx="0em" dy="0.95em" style="text-anchor: middle; visibility: hidden; font-family: &quot;Helvetica Neue&quot;, sans-serif; font-size: 12px; font-weight: 200;" fill="rgb(50, 49, 63)" stroke="none" stroke-width="1px">6.5k</text></g><line x1="0" y1="0" x2="795.75" y2="0" fill="rgb(0, 0, 0)" stroke="rgb(204, 204, 204)" stroke-width="1px"></line></g></g></g></g></svg>